<?xml version="1.0" encoding="UTF-8"?>
<svg version="1.1" xmlns="http://www.w3.org/2000/svg" width="512" height="512">
<path d="M0 0 C168.96 0 337.92 0 512 0 C512 168.96 512 337.92 512 512 C343.04 512 174.08 512 0 512 C0 343.04 0 174.08 0 0 Z " fill="#FDFDFD" transform="translate(0,0)"/>
<path d="M0 0 C0.71414063 0.38542969 1.42828125 0.77085938 2.1640625 1.16796875 C5.65911123 3.19038459 8.09671103 5.05897898 10.5625 8.25 C12.81289735 10.67208979 13.9279268 10.99065877 17.28515625 11.42578125 C19.89034845 11.51853987 22.4958507 11.60289835 25.1015625 11.6796875 C33.0413706 12.3320565 40.65246297 15.70241615 46.47265625 21.1953125 C51.96087704 27.68011558 56.33252765 35.20010239 56.125 43.8125 C56.10695313 44.78832031 56.08890625 45.76414063 56.0703125 46.76953125 C56.03550781 47.87361328 56.03550781 47.87361328 56 49 C56.94875 49.04125 57.8975 49.0825 58.875 49.125 C66.01912881 50.18285275 72.17512708 54.46777014 76.5 60.125 C80.37861669 65.73997416 81.22597863 69.22064123 81 76 C82.24652344 76.40089844 83.49304688 76.80179687 84.77734375 77.21484375 C105.32170197 84.08169214 131.05028868 93.58481933 143.6875 112.5625 C145.87776904 118.29891891 146.02235483 123.33596215 143.5 129 C137.01836684 140.37685261 127.27608806 147.04668351 115 151 C110.9004627 152.01786457 107.03057428 152.13388951 102.8125 152.125 C101.58144531 152.12757813 100.35039062 152.13015625 99.08203125 152.1328125 C96 152 96 152 94 151 C94.04640625 151.6290625 94.0928125 152.258125 94.140625 152.90625 C94.39771074 159.00285458 93.90492883 164.08268221 90 169 C87.859375 170.21875 87.859375 170.21875 86 171 C86.495 171.78375 86.99 172.5675 87.5 173.375 C90.60035304 180.86751985 89.38121369 187.94438168 86.375 195.32421875 C82.15773106 203.53111996 76.60085727 207.93963956 68.03125 211.1640625 C65.13184049 211.96364193 62.61888712 212.25776948 59.625 212.375 C56.74074579 212.52267382 55.44916289 212.62092626 53.22265625 214.5 C52.21523046 215.73044371 51.24188958 216.98976565 50.30859375 218.27734375 C48.558181 220.58161845 46.5954248 221.77438273 44 223 C43.34 223 42.68 223 42 223 C42 223.66 42 224.32 42 225 C42.52980469 225.20882812 43.05960937 225.41765625 43.60546875 225.6328125 C56.84362814 233.19130481 66.36924864 248.9143679 75 261 C75.45777832 261.63357422 75.91555664 262.26714844 76.38720703 262.91992188 C107.957421 306.66881452 107.957421 306.66881452 105 328 C101.19712506 336.81575554 91.0111188 343.73245378 82.66796875 347.96875 C77.13583904 350.10708418 72.89781836 349.65442012 67.375 347.75 C63.85160773 345.92305586 60.41528649 344.02129201 57 342 C56.01 342.66 55.02 343.32 54 344 C53.74402529 346.71452246 53.63891749 349.28405954 53.625 352 C53.31953426 360.68304549 51.89583095 366.90231253 45.73828125 373.37890625 C39.6675 379 39.6675 379 37 379 C37.19335938 380.19753906 37.38671875 381.39507812 37.5859375 382.62890625 C39.03871688 391.68867779 40.42809468 400.74583096 41.59375 409.84765625 C41.82596012 411.64951744 42.06890648 413.45024122 42.34375 415.24609375 C44.756567 431.36505174 44.756567 431.36505174 41.5625 438 C35.77792024 444.77219093 28.57808162 446.80623564 20 448 C15.99495322 448.28337277 12.01393524 448.32523457 8 448.3125 C6.98421875 448.32861328 5.9684375 448.34472656 4.921875 448.36132812 C-2.92293231 448.36635685 -10.96016873 447.59045342 -17.4375 442.75 C-22.13569479 437.70803486 -23.36287355 432.20614215 -24.31640625 425.51953125 C-24.4693943 424.4783741 -24.4693943 424.4783741 -24.62547302 423.41618347 C-24.94687755 421.21615228 -25.25512169 419.01453011 -25.5625 416.8125 C-25.87546808 414.63529914 -26.19116243 412.45850448 -26.50692749 410.28170776 C-26.71177186 408.86710798 -26.9154232 407.45233488 -27.11782837 406.03738403 C-27.98360192 400.00866882 -28.96193018 394.00149871 -30 388 C-34.08153426 388.42963518 -37.7353952 388.92375794 -41.6875 390.0625 C-44.71385518 390.91901562 -46.90055678 391.07920213 -50 391 C-50.05623535 391.58410645 -50.1124707 392.16821289 -50.17041016 392.77001953 C-54.29656575 434.89980456 -54.29656575 434.89980456 -60 440.5625 C-68.34640789 446.23201533 -78.30293537 446.47767222 -88.0625 446.375 C-89.72249023 446.39240234 -89.72249023 446.39240234 -91.41601562 446.41015625 C-101.03041366 446.37608278 -109.24239122 445.19058849 -116.625 438.6953125 C-120.50367782 433.91307906 -120.314333 428.86625849 -120.25 423 C-120.24540771 422.12859375 -120.24081543 421.2571875 -120.23608398 420.359375 C-120.14862765 413.87254778 -119.6992322 407.45428175 -119.0625 401 C-118.93355347 399.67609253 -118.93355347 399.67609253 -118.80200195 398.32543945 C-118.42573441 394.62320435 -117.99475014 390.96764856 -117.3984375 387.29296875 C-116.47361781 381.78267607 -116.47361781 381.78267607 -118.39453125 376.75 C-120.21950247 374.67158445 -120.21950247 374.67158445 -122.20703125 372.8046875 C-125.52135802 369.46869847 -126.88717468 365.76759666 -127.1875 361.0625 C-127.125625 360.381875 -127.06375 359.70125 -127 359 C-127.66 358.814375 -128.32 358.62875 -129 358.4375 C-136.63330105 354.77987658 -141.79713783 348.78034331 -145 341 C-147.27336467 332.09598839 -146.89642739 323.34539207 -142.77734375 315.12109375 C-141.84428964 312.57512198 -142.06147675 311.50785721 -143 309 C-143.495 308.01 -143.99 307.02 -144.5 306 C-148.30479968 298.39040064 -148.0069024 289.53671814 -145.5625 281.5 C-145.04464443 279.99896936 -144.52406306 278.49887467 -144 277 C-143.65879093 275.66866035 -143.32427656 274.3355649 -143 273 C-144.06476563 272.52691406 -145.12953125 272.05382812 -146.2265625 271.56640625 C-160.08364764 265.29852763 -172.40622528 257.92950706 -184 248 C-184.88171875 247.26394531 -185.7634375 246.52789062 -186.671875 245.76953125 C-200.41856093 233.86738651 -214.09959601 216.8882613 -216.3359375 198.19140625 C-216.44562125 190.80968982 -215.39003637 185.67123754 -210.3046875 180.1640625 C-202.40644498 172.8414004 -193.84944011 167.45743491 -182.91015625 167.6015625 C-174.06771908 168.8122049 -168.35466677 176.51153587 -163 183 C-161.83533008 184.35588438 -160.66886478 185.71023021 -159.5 187.0625 C-158.675 188.031875 -157.85 189.00125 -157 190 C-157.3609375 189.51273438 -157.721875 189.02546875 -158.09375 188.5234375 C-162.56686285 181.68951509 -163.16435209 175.0340294 -162 167 C-161.00430996 165.33075493 -160.00492172 163.66370373 -159 162 C-159.3172561 157.82686209 -161.97028127 154.14795473 -163.94140625 150.53515625 C-165.07878064 147.81133346 -165.20372186 145.92001332 -165 143 C-166.2375 143.33 -167.475 143.66 -168.75 144 C-183.05094109 146.7909244 -196.68184068 146.34826093 -209.25390625 138.61328125 C-216.24136642 133.77376899 -222.61222496 127.28698396 -225 119 C-225.80512749 113.52841931 -225.98466965 108.65753557 -222.8125 103.9375 C-206.81868284 85.71198743 -181.82074612 77.74477702 -160 69 C-160.01885254 68.26612061 -160.03770508 67.53224121 -160.05712891 66.77612305 C-160.07912354 65.31493042 -160.07912354 65.31493042 -160.1015625 63.82421875 C-160.12041504 62.86346436 -160.13926758 61.90270996 -160.15869141 60.9128418 C-159.56021815 49.92763501 -151.64514657 41.0211174 -144.046875 33.765625 C-137.38295275 28.01735618 -131.81166146 27.58224695 -123.07421875 27.76171875 C-120 28 -120 28 -117 29 C-116.73445313 28.26523438 -116.46890625 27.53046875 -116.1953125 26.7734375 C-110.60849537 13.81056115 -98.53876997 6.26035382 -85.98046875 1.18359375 C-75.41304396 -2.10865406 -64.48201705 -0.45101546 -54.3671875 3.30883789 C-50.49051423 4.72237385 -47.93491982 5.42242034 -44 4 C-41.71404595 2.61469569 -39.6241884 1.06189941 -37.4765625 -0.52734375 C-26.98369508 -6.7667933 -10.39273408 -5.93042632 0 0 Z " fill="#2F2B2E" transform="translate(297,37)"/>
<path d="M0 0 C1.36511719 0.29197266 1.36511719 0.29197266 2.7578125 0.58984375 C3.45648438 0.74582031 4.15515625 0.90179688 4.875 1.0625 C5.13163767 8.37667364 3.75438135 13.98300917 0.9375 20.75 C-5.31138868 36.1050759 -9.83634877 56.9483374 -4.125 73.0625 C2.09860673 85.65115906 13.11905489 94.92734921 26.00488281 100.2746582 C27.86020504 101.05626719 29.68010961 101.8938364 31.50390625 102.74609375 C42.19943925 107.58834999 52.73005638 109.86659732 64.30029297 111.63916016 C66.85550136 112.05929398 69.3769836 112.56938677 71.91015625 113.10546875 C101.68693152 119.13355652 142.17356415 116.9873367 168.5 100.25 C169.96017818 99.19003677 171.41881033 98.12793607 172.875 97.0625 C173.60589844 96.7015625 174.33679688 96.340625 175.08984375 95.96875 C177.49849936 94.74597516 177.74959644 93.51190776 178.875 91.0625 C179.679375 90.051875 180.48375 89.04125 181.3125 88 C188.97295067 77.25723781 187.96236042 62.82120855 185.89648438 50.38769531 C185.09864184 45.96025877 184.18882692 41.55921299 183.265625 37.15625 C181.17003357 27.12281223 180.714198 17.30022751 180.875 7.0625 C184.29859723 6.14763477 187.33639284 5.69880982 190.875 6.0625 C196.16120802 9.23744811 200.04892706 13.60165753 202.875 19.0625 C203.57468744 25.82614527 201.8639937 31.62194898 199.875 38.0625 C200.7 38.124375 201.525 38.18625 202.375 38.25 C207.98198128 39.55162065 212.03261775 42.49647508 216.375 46.1875 C218.7452741 50.73052536 218.57483484 55.0531559 217.875 60.0625 C215.90610488 64.77072746 213.62171322 66.39096438 209.125 68.4375 C207.7152264 68.99686178 206.30055266 69.54467104 204.875 70.0625 C205.638125 70.475 206.40125 70.8875 207.1875 71.3125 C209.92240185 73.09336632 211.17670556 74.31611528 212.875 77.0625 C214.10578611 83.03515199 213.27749036 88.14174181 210.3125 93.4375 C206.52862331 99.0597696 201.57010476 103.34979878 194.875 105.0625 C191.53418032 105.21201199 188.21636234 105.17928548 184.875 105.0625 C184.545 103.7425 184.215 102.4225 183.875 101.0625 C183.215 101.0625 182.555 101.0625 181.875 101.0625 C181.813125 102.09375 181.75125 103.125 181.6875 104.1875 C180.37795295 110.4330321 177.03517045 113.56062375 171.875 116.9375 C166.23051925 119.86391703 160.07946277 120.22784599 153.875 119.0625 C150.984375 117.02734375 150.984375 117.02734375 148.875 115.0625 C148.5346875 115.52140625 148.194375 115.9803125 147.84375 116.453125 C142.40044129 123.3441222 136.24060396 125.97109901 127.875 128.0625 C131.62806572 129.31352191 134.9851661 129.72225981 138.875 129.0625 C140.23916564 128.23639172 141.57154224 127.35641275 142.875 126.4375 C148.43499262 123.0375742 154.05196593 123.92532718 160.17578125 125.0703125 C165.02880182 126.37196744 167.98042808 127.94766736 170.875 132.0625 C173.58319742 136.78000518 175.23329967 141.67141915 173.875 147.0625 C172.15001843 149.70247179 170.15458297 151.8914686 167.875 154.0625 C168.58527344 155.04992187 169.29554688 156.03734375 170.02734375 157.0546875 C170.95580392 158.34890471 171.88418525 159.64317848 172.8125 160.9375 C173.28107422 161.58847656 173.74964844 162.23945313 174.23242188 162.91015625 C179.17512203 169.80860107 179.68168165 174.57165855 178.875 183.0625 C177.79757394 185.43917513 176.51411317 187.00038988 174.875 189.0625 C175.21655522 192.29116345 176.4022924 193.90750612 178.625 196.1875 C185.63732386 203.99399066 188.19287584 212.46995777 188.08984375 222.76171875 C187.71303276 228.55090575 186.14429535 232.37010619 182.625 237.0625 C179.16549065 239.5785068 177.05881014 239.47267747 172.875 239.0625 C173.514375 239.784375 174.15375 240.50625 174.8125 241.25 C176.96641613 244.18715836 177.54377875 245.50187159 177.875 249.0625 C178.060625 250.91875 178.060625 250.91875 178.25 252.8125 C178.16219332 258.61871669 175.2863652 263.52162414 171.34765625 267.671875 C166.07030099 272.23752586 162.33401091 273.3690058 155.375 273.4375 C154.0653125 273.46585937 152.755625 273.49421875 151.40625 273.5234375 C147.42278322 273.0034717 146.29032601 272.18024224 143.875 269.0625 C143.689375 269.92875 143.50375 270.795 143.3125 271.6875 C141.12998247 276.81167159 137.73198154 279.64988135 132.765625 282.10546875 C124.71977473 285.14406114 116.8880166 284.9712464 108.859375 281.99609375 C106.17176186 280.73164584 104.0367405 279.08477337 101.875 277.0625 C101.31425781 277.34867187 100.75351562 277.63484375 100.17578125 277.9296875 C89.21390648 283.32687541 78.31678258 285.08475173 66.3125 281.8125 C60.76654045 279.85022528 55.97373625 277.22706041 52.875 272.0625 C52.875 271.4025 52.875 270.7425 52.875 270.0625 C51.98748047 270.67738281 51.98748047 270.67738281 51.08203125 271.3046875 C50.29183594 271.84351563 49.50164062 272.38234375 48.6875 272.9375 C47.91019531 273.47117187 47.13289063 274.00484375 46.33203125 274.5546875 C39.98780717 278.44796332 33.99725401 279.08881683 26.73046875 277.6328125 C21.11264638 275.83776867 16.93328002 272.26246561 12.875 268.0625 C11.33336825 264.9792365 11.57752465 262.45371901 11.875 259.0625 C13.75 257.125 13.75 257.125 15.875 256.0625 C16.535 256.0625 17.195 256.0625 17.875 256.0625 C17.875 255.4025 17.875 254.7425 17.875 254.0625 C17.2459375 254.10890625 16.616875 254.1553125 15.96875 254.203125 C9.70106053 254.46742516 4.94479586 253.95732171 -0.125 250.0625 C-5.60465128 244.33930866 -8.14454337 238.73251812 -8.5 230.8125 C-8.3597042 224.37643015 -6.94521429 218.25682434 -2.59375 213.328125 C1.1488764 210.0625 1.1488764 210.0625 3.875 210.0625 C3.875 209.4025 3.875 208.7425 3.875 208.0625 C2.8025 207.98 1.73 207.8975 0.625 207.8125 C-3.47588558 206.99232288 -4.62338425 206.30533524 -7.125 203.0625 C-10.3364814 197.54385325 -9.71924531 191.96967615 -8.47265625 185.87109375 C-6.34658493 178.14241387 -3.1280951 172.28256418 1.875 166.0625 C2.34421875 165.4540625 2.8134375 164.845625 3.296875 164.21875 C5.537703 161.39696659 7.69500018 158.79704536 10.875 157.0625 C14.125 156.875 14.125 156.875 16.875 157.0625 C16.875 156.4025 16.875 155.7425 16.875 155.0625 C16.00875 154.7221875 16.00875 154.7221875 15.125 154.375 C10.20923317 151.50746935 8.35080475 147.36776364 6.875 142.0625 C6.06852581 133.97900288 6.07394291 126.83857388 10.875 120.0625 C11.47248047 119.00095703 11.47248047 119.00095703 12.08203125 117.91796875 C15.42481528 114.45866066 19.98943608 115.03432288 24.55859375 114.828125 C27.875 115.0625 27.875 115.0625 30.8125 117.25 C31.493125 118.178125 32.17375 119.10625 32.875 120.0625 C37.78624301 123.93719926 41.72135238 124.49433492 47.875 124.0625 C45.61781815 121.80531815 44.11973041 121.37778094 41.125 120.375 C35.99380657 118.39232468 32.69819283 115.81296469 29.875 111.0625 C29.22265625 108.84375 29.22265625 108.84375 28.875 107.0625 C28.34132812 107.3821875 27.80765625 107.701875 27.2578125 108.03125 C21.5860463 110.48591603 14.58448828 110.12846973 8.90625 107.89453125 C4.24081243 105.22562652 1.3009216 102.9602597 -1.125 98.0625 C-1.3125 94.75 -1.3125 94.75 -1.125 92.0625 C-2.61 93.0525 -2.61 93.0525 -4.125 94.0625 C-7.28558613 94.65051602 -9.29879873 94.53230072 -12.1171875 92.9296875 C-17.42420537 89.10462934 -22.88259143 84.77394239 -24.125 78.0625 C-24.68613511 73.42425661 -25.19279846 68.97468063 -22.85546875 64.7890625 C-21.36551988 63.01272443 -19.97179779 61.46434392 -18.125 60.0625 C-17.465 60.0625 -16.805 60.0625 -16.125 60.0625 C-16.125 59.4025 -16.125 58.7425 -16.125 58.0625 C-16.846875 58.02125 -17.56875 57.98 -18.3125 57.9375 C-22.3935215 56.66784887 -23.61031026 54.48527215 -26.125 51.0625 C-27.86782933 47.57684134 -27.5585191 43.8735858 -27.125 40.0625 C-25.00096489 35.33169453 -21.92345364 33.1789824 -17.8125 30.25 C-14.29399438 27.72371987 -14.29399438 27.72371987 -12.69921875 23.9375 C-13.02188033 21.5908703 -13.5558246 19.36137727 -14.125 17.0625 C-15.30583093 7.64209321 -15.30583093 7.64209321 -12.6328125 4.06640625 C-8.25377956 0.27790679 -5.74365672 -1.25182262 0 0 Z " fill="#FDFBED" transform="translate(166.125,136.9375)"/>
<path d="M0 0 C1.02609375 0.66773438 2.0521875 1.33546875 3.109375 2.0234375 C7.32185652 4.45120191 11.02505124 4.65130682 15.8125 4.5625 C16.60350098 4.55806885 17.39450195 4.5536377 18.20947266 4.54907227 C23.95401118 4.37408478 28.19563042 3.20934117 33.0546875 -0.00390625 C35 -1 35 -1 36.9921875 -0.83203125 C39.3400289 0.14090692 41.19052832 1.38595753 43.25 2.875 C52.73086637 9.3775021 62.66368717 10.88545458 74 10 C82.20727679 8.37709216 88.78191094 5.63573027 95 0 C98.42642275 1.61907888 101.29602064 3.61193531 104.31640625 5.87890625 C108.74779991 8.82974147 113.89270482 8.35684158 119 8 C120.52890759 7.59161066 122.05066049 7.15513401 123.5625 6.6875 C126.29223463 5.98963741 127.46944131 5.74439495 130.03515625 6.98046875 C130.72480469 7.44066406 131.41445313 7.90085938 132.125 8.375 C138.20788594 12.37604262 145.01095015 11.41437054 152 11 C152 12.32 152 13.64 152 15 C149.03 15 146.06 15 143 15 C143.38215585 19.1451273 143.77309693 23.28930797 144.171875 27.43286133 C144.306075 28.83986441 144.43795457 30.24709097 144.56738281 31.65454102 C144.75482682 33.68830849 144.95085723 35.72110141 145.1484375 37.75390625 C145.26364746 38.97408447 145.37885742 40.1942627 145.49755859 41.45141602 C146.01559992 45.11017727 146.92274284 48.46958297 148 52 C151.16361836 66.82213789 152.3119592 82.91976728 144.5625 96.5234375 C137.68444807 106.2122318 128.10004242 111.53397885 117 115 C115.94941406 115.39832031 114.89882813 115.79664063 113.81640625 116.20703125 C85.25577281 126.74612787 52.48287714 127.05062201 23.12890625 119.703125 C19.99865445 118.99969763 16.93575213 118.61318364 13.75 118.25 C5.95703551 117.11921918 -0.90633073 114.11758788 -8.02978516 110.890625 C-9.77402919 110.10214889 -11.53258985 109.34551323 -13.29296875 108.59375 C-24.7626611 103.38163089 -34.96096423 95.17770621 -41 84 C-41.598125 82.96875 -42.19625 81.9375 -42.8125 80.875 C-49.20931675 65.38796997 -43.84752997 43.04879037 -38 28 C-37.48824219 27.20722656 -36.97648438 26.41445312 -36.44921875 25.59765625 C-34.60940114 22.29986996 -34.26645036 19.42386063 -33.8125 15.6875 C-33.57466797 13.80611328 -33.57466797 13.80611328 -33.33203125 11.88671875 C-33.16767578 10.45779297 -33.16767578 10.45779297 -33 9 C-34.41152344 9.04640625 -34.41152344 9.04640625 -35.8515625 9.09375 C-39.36349912 8.9891762 -40.472145 8.33340462 -43 6 C-42.67 5.34 -42.34 4.68 -42 4 C-40.783125 4.165 -39.56625 4.33 -38.3125 4.5 C-27.1581578 5.69448074 -17.74966199 5.63443338 -7.75 0.25 C-4.44540558 -1.25208837 -3.37835286 -1.23598276 0 0 Z " fill="#FCDFB5" transform="translate(204,129)"/>
<path d="M0 0 C2.90442909 2.37324994 5.22482789 4.67641134 7 8 C6.9375 11.5 6.9375 11.5 6 14 C6.48210937 13.67902344 6.96421875 13.35804687 7.4609375 13.02734375 C14.20925994 10.29686867 24.19439374 10.94628455 31.16015625 12.875 C37.83076804 16.00925964 42.66909969 20.7668157 46.9375 26.6875 C49.10082244 33.43197584 48.97072668 40.54961737 46 47 C47.0725 46.87625 48.145 46.7525 49.25 46.625 C56.20973295 46.63738387 62.9623844 50.27820455 68.06640625 54.8515625 C72.11909584 59.44135553 73.43533544 63.35187064 73.3359375 69.46484375 C72.33161113 77.04400441 67.96703065 82.930894 62.10546875 87.59375 C56.29471343 91.47477396 50.92509573 92.67017055 44 92 C40.32685467 90.54460279 37.57999068 89.00998912 35 86 C30.92035719 87.30155006 30.92035719 87.30155006 27 89 C20.07087447 89.74621352 14.28931712 89.72199527 8.55078125 85.48046875 C4.19462532 81.32182115 3.2673545 75.65435083 2 70 C1.84144531 70.66386719 1.68289063 71.32773438 1.51953125 72.01171875 C-0.44280739 79.43824897 -2.80789654 82.89200715 -9.3125 87.1875 C-19.05160618 92.36074565 -29.98770114 92.21317161 -40.35546875 89.0390625 C-47.86103522 86.09005116 -52.62617254 82.33440752 -56 75 C-56.7425 75.763125 -57.485 76.52625 -58.25 77.3125 C-65.11732239 84.02374688 -71.49425699 85.44803218 -80.9440918 85.51513672 C-87.47032229 85.3481639 -91.24201168 83.22203101 -96 79 C-96.99 78.34 -97.98 77.68 -99 77 C-99.22816406 77.61488281 -99.45632812 78.22976562 -99.69140625 78.86328125 C-101.39985974 81.6529053 -102.89213368 82.09188363 -105.9375 83.1875 C-106.81277344 83.51105469 -107.68804687 83.83460937 -108.58984375 84.16796875 C-117.4029803 87.21042918 -126.51402848 87.08925439 -135 83 C-144.77811284 77.62203794 -150.10597953 71.67653521 -153.30859375 60.9296875 C-154.85454201 54.37905927 -154.50231368 48.90781739 -151 43 C-146.88033152 36.63628447 -142.14594313 30.94964942 -135 28 C-126.44344052 26.47119644 -118.91361037 28.85700581 -111 32 C-111.66 31.01 -112.32 30.02 -113 29 C-113.75514986 25.29976571 -113.53310512 22.94583166 -111.66796875 19.63671875 C-105.28438874 10.99536729 -95.45326926 2.89978018 -84.78515625 0.3671875 C-73.21972983 -1.15756717 -61.4895365 -0.92881752 -51.41796875 5.69921875 C-49.15673035 7.17742684 -49.15673035 7.17742684 -46.953125 6.9296875 C-44.40704252 5.71775224 -42.76016329 4.09900927 -40.75 2.125 C-29.55437875 -7.96733709 -12.67324185 -7.96878086 0 0 Z " fill="#FDFBED" transform="translate(298,43)"/>
<path d="M0 0 C1.65935172 4.52331209 2.57421778 8.95143713 3.21875 13.70703125 C3.32215698 14.43186203 3.42556396 15.15669281 3.53210449 15.90348816 C3.86001999 18.20578241 4.18062732 20.50900641 4.5 22.8125 C5.8633034 40.05038701 5.8633034 40.05038701 13 55 C24.26464824 62.3680718 41.23714023 61.6151656 54.0703125 59.43359375 C58.00805576 58.49110131 61.19472348 57.48316591 64.67578125 55.39453125 C67 54 67 54 69 54 C69.309375 53.21625 69.61875 52.4325 69.9375 51.625 C71 49 71 49 72 47 C72.22858114 44.9625237 72.41024278 42.91959697 72.5625 40.875 C72.64628906 39.77929688 72.73007812 38.68359375 72.81640625 37.5546875 C72.87699219 36.71164062 72.93757812 35.86859375 73 35 C88.73611731 35.65159906 110.91407791 37.45817673 123.3984375 48.03125 C125 50 125 50 125.0625 52.5 C123.04523358 57.24650922 119.22855292 59.03526835 114.6875 61 C107.64670539 63.67318659 100.32697547 65.31839907 93 67 C91.6696875 67.309375 91.6696875 67.309375 90.3125 67.625 C78.79579954 70.1150974 66.97057794 71.06083776 55.25 72.0625 C54.33589355 72.14177734 53.42178711 72.22105469 52.47998047 72.30273438 C49.32135725 72.56129063 46.16199601 72.78641404 43 73 C42.35894318 73.04450287 41.71788635 73.08900574 41.05740356 73.13485718 C25.21795958 74.1954357 9.36141619 74.18753138 -6.50561523 74.18530273 C-9.53106701 74.18522173 -12.55636651 74.19213975 -15.58178711 74.20581055 C-34.82441917 74.29134278 -53.81909117 73.74915838 -73 72 C-74.4743837 71.87660022 -75.94889689 71.75472932 -77.42358398 71.63500977 C-128.63301421 67.3487579 -128.63301421 67.3487579 -141.3125 56.5 C-143 54 -143 54 -143.125 51.4375 C-140.79930325 46.39849039 -136.03440482 44.3372316 -131.0625 42.4375 C-118.23522247 37.72838685 -103.70248548 34.73172845 -90 35 C-89.91363281 35.86882812 -89.82726562 36.73765625 -89.73828125 37.6328125 C-88.73020262 47.02884132 -88.73020262 47.02884132 -83 54 C-80.05917151 55.29727232 -77.1057614 56.19157147 -74 57 C-72.515 57.495 -72.515 57.495 -71 58 C-49.28129227 59.90986594 -49.28129227 59.90986594 -29.77734375 52.15625 C-23.79629432 44.9001197 -24.10582495 31.77126759 -23.08959961 22.80566406 C-22.36280246 16.45613278 -21.36513856 10.24432464 -20 4 C-17.60612843 3.32550034 -15.21030779 2.66023359 -12.8125 2 C-12.13896484 1.80921875 -11.46542969 1.6184375 -10.77148438 1.421875 C-7.09444844 0.4174164 -3.8149818 -0.23704741 0 0 Z " fill="#C6DAE8" transform="translate(267,424)"/>
<path d="M0 0 C7.08886687 4.72591125 10.35284949 12.05854848 13 20 C13.6551303 29.20962022 13.42471728 36.4337103 7.75 44 C4.29049065 46.5160068 2.18381014 46.41017747 -2 46 C-1.360625 46.721875 -0.72125 47.44375 -0.0625 48.1875 C2.09141613 51.12465836 2.66877875 52.43937159 3 56 C3.12375 57.2375 3.2475 58.475 3.375 59.75 C3.28719332 65.55621669 0.4113652 70.45912414 -3.52734375 74.609375 C-8.80469901 79.17502586 -12.54098909 80.3065058 -19.5 80.375 C-21.46453125 80.41753906 -21.46453125 80.41753906 -23.46875 80.4609375 C-27.45221678 79.9409717 -28.58467399 79.11774224 -31 76 C-31.185625 76.86625 -31.37125 77.7325 -31.5625 78.625 C-33.74501753 83.74917159 -37.14301846 86.58738135 -42.109375 89.04296875 C-50.15522527 92.08156114 -57.9869834 91.9087464 -66.015625 88.93359375 C-68.70323814 87.66914584 -70.8382595 86.02227337 -73 84 C-73.56074219 84.28617187 -74.12148438 84.57234375 -74.69921875 84.8671875 C-85.66109352 90.26437541 -96.55821742 92.02225173 -108.5625 88.75 C-114.10845955 86.78772528 -118.90126375 84.16456041 -122 79 C-122 78.34 -122 77.68 -122 77 C-122.59167969 77.40992188 -123.18335938 77.81984375 -123.79296875 78.2421875 C-124.58316406 78.78101563 -125.37335938 79.31984375 -126.1875 79.875 C-126.96480469 80.40867187 -127.74210937 80.94234375 -128.54296875 81.4921875 C-134.88719283 85.38546332 -140.87774599 86.02631683 -148.14453125 84.5703125 C-153.76235362 82.77526867 -157.94171998 79.19996561 -162 75 C-163.54163175 71.9167365 -163.29747535 69.39121901 -163 66 C-161.125 64.0625 -161.125 64.0625 -159 63 C-158.34 63 -157.68 63 -157 63 C-157 62.34 -157 61.68 -157 61 C-157.6290625 61.04640625 -158.258125 61.0928125 -158.90625 61.140625 C-165.17393947 61.40492516 -169.93020414 60.89482171 -175 57 C-181.45458848 50.25854092 -183.35394402 43.84924717 -183.203125 34.63671875 C-182.96313486 31.52146213 -182.23920133 28.86565307 -181 26 C-179.32319084 28.51521375 -178.5695493 30.09356846 -177.6875 32.875 C-175.79991163 38.01867832 -172.82766418 40.76738927 -168.3125 43.8125 C-160.7336575 46.52944354 -154.17841209 45.19040538 -147 42 C-146.76925781 42.59167969 -146.53851563 43.18335938 -146.30078125 43.79296875 C-143.64985034 50.21597527 -141.03416491 54.24018435 -134.875 57.8125 C-125.62693152 61.34321595 -115.19203752 58.32418261 -106 56 C-106.66 57.65 -107.32 59.3 -108 61 C-100.80780286 65.12885391 -96.49114532 66.80868051 -88 66 C-81.60051284 64.1715751 -75.23717388 60.74256191 -71.74609375 54.90234375 C-70.76155641 52.95728218 -69.84713041 51.00819738 -69 49 C-68.46375 49.721875 -67.9275 50.44375 -67.375 51.1875 C-61.42342925 58.23541273 -56.51847025 60.37526752 -47.6875 61.375 C-41.19063652 60.71430202 -35.26675285 58.73623622 -30.0625 54.75 C-25.54888215 48.73184287 -23.53569154 43.49968154 -23 36 C-22.29875 36.04640625 -21.5975 36.0928125 -20.875 36.140625 C-14.36657098 36.38822828 -9.24351329 36.13298755 -4 32 C1.51692583 26.01329228 3.16099789 21.42721061 3.0625 13.3125 C3.05573242 12.2596582 3.05573242 12.2596582 3.04882812 11.18554688 C3.03706927 9.45699462 3.01913454 7.72848635 3 6 C2.34 6 1.68 6 1 6 C0.67 4.02 0.34 2.04 0 0 Z " fill="#D8DEDF" transform="translate(341,330)"/>
<path d="M0 0 C0.515625 1.175625 1.03125 2.35125 1.5625 3.5625 C4.75674018 9.95098036 9.64349282 14.72543569 16 18 C14.68806535 22.052573 13.34567167 23.66319905 9.9375 26.125 C7.59194078 28.29557967 6.1615909 29.89044341 5.69287109 33.10888672 C5.60174477 35.59780624 5.59682151 38.07213677 5.625 40.5625 C5.59827532 49.07309457 5.59827532 49.07309457 3.3359375 52.578125 C0.64247484 54.57795347 -1.87685245 55.76570217 -5 57 C-5.62567871 57.27618164 -6.25135742 57.55236328 -6.89599609 57.83691406 C-18.72738096 63.04260912 -30.25110361 65.49327998 -42.9375 61.375 C-51.92999841 57.56484512 -59.79184484 50.99785529 -64.4375 42.3125 C-65.09235553 39.62031614 -65.33452178 37.76887306 -65 35 C-54.33751929 20.63829129 -36.89869883 12.99703139 -21 6 C-20.26942383 5.67805664 -19.53884766 5.35611328 -18.78613281 5.02441406 C-6.36859694 -0.37575685 -6.36859694 -0.37575685 0 0 Z " fill="#FAD9AD" transform="translate(143,112)"/>
<path d="M0 0 C2.7144627 1.33534052 4.48148281 3.19470287 6.625 5.328125 C11.32816193 9.72785713 16.20925146 13.3478834 21.625 16.828125 C22.32520264 17.27978027 23.02540527 17.73143555 23.74682617 18.19677734 C28.34435265 21.09826015 33.04169914 23.59039282 37.9375 25.953125 C37.70667725 26.91943848 37.70667725 26.91943848 37.47119141 27.90527344 C35.16689671 37.82660083 34.61968327 46.58426848 39.16015625 55.89453125 C39.9375 57.953125 39.9375 57.953125 38.9375 60.953125 C37.4140625 62.41796875 37.4140625 62.41796875 35.5625 63.890625 C32.94275755 66.04774353 30.81060635 68.08837412 28.9375 70.953125 C7.91849106 68.79732921 -14.57486737 50.09170589 -27.8984375 34.79296875 C-30.0625 31.953125 -30.0625 31.953125 -30.25 29.203125 C-25.52125731 16.26130291 -16.41128392 7.9229979 -4.76171875 1.0703125 C-2.0625 -0.046875 -2.0625 -0.046875 0 0 Z " fill="#FCE0B5" transform="translate(133.0625,232.046875)"/>
<path d="M0 0 C5.79030691 0.53472491 10.36672318 2.19527446 15.625 4.625 C16.41189209 4.98327881 17.19878418 5.34155762 18.00952148 5.71069336 C28.41234734 10.50215052 38.2326105 15.52779304 47 23 C48.0828125 23.90105469 48.0828125 23.90105469 49.1875 24.8203125 C57.02186804 31.47376477 57.02186804 31.47376477 59 35 C59.19711554 41.01202388 57.5921554 44.51484737 53.79296875 49.1171875 C46.87708997 56.37961359 37.44428626 61.43240046 27.3359375 62.203125 C16.58138315 62.3733818 8.11570585 60.08923008 -0.9140625 54.08203125 C-3 52 -3 52 -3.5859375 49.63671875 C-3.5 47.125 -3.5 47.125 -3.2265625 44.54296875 C-2.84002103 40.20437395 -3.77273929 36.72951866 -6 33 C-8.52239066 30.51822755 -11.1180503 28.30365213 -13.91796875 26.140625 C-16 24 -16 24 -16.5625 21.4453125 C-15.8093418 18.17116645 -14.57463217 17.47242935 -11.8125 15.625 C-6.00602463 11.42534801 -2.30811364 6.92434091 0 0 Z " fill="#FADAAE" transform="translate(376,119)"/>
<path d="M0 0 C1.07072305 1.60608458 2.13906591 3.21384234 3.19140625 4.83203125 C8.71739514 12.8140152 16.39179765 18.13985203 26 20 C34.20910246 20.9121225 41.65180539 19.91581423 49 16 C51.26665256 13.963998 51.26665256 13.963998 53 12 C55.04210893 12.95002459 56.82884579 13.86019582 58.578125 15.2890625 C64.18869058 19.77227144 70.25907044 19.75482417 77.1328125 19.4375 C82.09177309 18.87648628 85.72100253 17.44935717 90 15 C90.99 14.67 91.98 14.34 93 14 C94.22520264 10.99152582 94.22520264 10.99152582 95 8 C96.74095991 10.26324789 98.23795963 12.4301578 99.625 14.9375 C104.08824843 20.69274139 110.54427258 23.43876843 117.62109375 24.71875 C128.65791984 26.02359643 137.93240978 24.57400291 147 18 C147.66 18 148.32 18 149 18 C149.19335938 17.40832031 149.38671875 16.81664063 149.5859375 16.20703125 C150.94414719 12.0853355 152.32050585 8.0049476 154 4 C154.33 4 154.66 4 155 4 C155.15855469 4.80824219 155.31710937 5.61648437 155.48046875 6.44921875 C157.24730226 14.85669154 157.24730226 14.85669154 163 21 C167.93342808 24.02024682 173.40091555 23.53288873 179 23 C181.02813371 22.05836649 183.04072167 21.07760308 185 20 C187.51896829 20.74087303 188.97538477 21.9813521 191.0625 23.5625 C195.00638458 26.48860791 199.28213411 26.5498864 204 26 C211.68253325 24.11537856 216.61666817 20.56282182 221 14 C222.22317888 11.68032862 223.12127558 9.48110425 224 7 C224.99 7 225.98 7 227 7 C227 7.99 227 8.98 227 10 C228.65 10 230.3 10 232 10 C231.34 10.33 230.68 10.66 230 11 C229.62875 12.2684375 229.62875 12.2684375 229.25 13.5625 C227.05863014 19.58876713 223.52340178 24.2053666 218.125 27.6875 C214.80670576 29.60663482 214.80670576 29.60663482 214.50390625 32.37890625 C215.19818681 36.04711301 216.8939708 36.99534225 219.8125 39.25 C224.69105811 43.42472087 227.13934941 46.60355982 228 53 C228.19252055 56.35267486 228.18894975 59.64789141 228 63 C230.31 64.32 232.62 65.64 235 67 C228.78502335 70.2146431 228.78502335 70.2146431 225.95703125 69.44140625 C224.89548828 69.00634766 224.89548828 69.00634766 223.8125 68.5625 C223.09707031 68.27503906 222.38164062 67.98757812 221.64453125 67.69140625 C221.10183594 67.46324219 220.55914062 67.23507813 220 67 C220.875 59.375 220.875 59.375 222 56 C222.34612625 50.63504311 222.52693494 47.29845196 219 43 C216.9561788 41.15727768 214.88113365 39.37996533 212.7421875 37.6484375 C211 36 211 36 210 33 C208.53240234 33.08701172 208.53240234 33.08701172 207.03515625 33.17578125 C199.4895561 33.43546267 194.46394601 33.27033407 188.03515625 28.98046875 C184.84403453 27.44309533 182.59209272 28.37718721 179.3203125 29.36328125 C172.66865132 31.18856874 166.66651568 30.54073763 160.6953125 27.15625 C158.51374656 25.66836171 156.7167784 24.00290814 155 22 C152.20709996 23.35887738 149.54632272 24.85540666 146.875 26.4375 C136.19237954 32.31816077 125.2470341 33.70692335 113.3125 30.875 C106.95095984 28.92549576 100.73259352 25.73259352 96 21 C93.03698559 21.38409446 90.93035384 22.59553761 88.375 24.0625 C81.26766401 27.27378802 72.62246442 27.15007537 65 26 C62.22815217 24.92024751 60.16548663 23.80726324 57.82421875 21.99609375 C55.96455413 20.7580596 55.96455413 20.7580596 53.4140625 21.2578125 C50.92371405 21.91113825 50.92371405 21.91113825 48.6875 23.4375 C40.123558 28.41653604 29.11941155 28.08275649 19.6875 26 C18.470625 25.67 17.25375 25.34 16 25 C15.91878906 25.60714844 15.83757812 26.21429688 15.75390625 26.83984375 C14.7617765 29.68257822 13.5229756 30.10788498 10.9375 31.5625 C8.27043118 33.44849867 7.15906827 34.28861133 6.4375 37.515625 C6.4375 41.26959853 6.76369813 44.81849066 7.5 48.5 C8.56587859 54.13392971 8.56587859 54.13392971 6.71875 56.9609375 C4.87687732 58.74626145 3.34453065 59.95645401 1 61 C-2.4375 60.375 -2.4375 60.375 -5 59 C-3.37660195 57.29115995 -1.70680947 55.62553283 0 54 C0.66 54 1.32 54 2 54 C1.9071875 52.72125 1.814375 51.4425 1.71875 50.125 C1.03423256 36.61843219 1.03423256 36.61843219 3.7109375 32.1328125 C5.875 30.125 5.875 30.125 8.0546875 28.5703125 C10.44307572 26.64233647 11.07156429 24.88303721 12 22 C11.154375 21.484375 10.30875 20.96875 9.4375 20.4375 C4.35662078 17.04622432 -0.66898155 12.75898677 -3 7 C-3 6.01 -3 5.02 -3 4 C-4.32 3.67 -5.64 3.34 -7 3 C-3.535 2.505 -3.535 2.505 0 2 C0 1.34 0 0.68 0 0 Z " fill="#5A4234" transform="translate(146,108)"/>
<path d="M0 0 C18.3842012 8.32719835 32.46686856 36.99717716 42.3125 53.75 C42.70405273 54.39332275 43.09560547 55.03664551 43.49902344 55.69946289 C45.25070254 58.77628643 46.01585468 60.70475067 45.82421875 64.2734375 C43.35543447 72.44031629 36.42316461 78.38143607 29.26171875 82.62109375 C22.64748584 86 22.64748584 86 20 86 C19.77957031 84.47632813 19.77957031 84.47632813 19.5546875 82.921875 C18.03220075 73.27671571 16.17146598 62.8826581 8.76171875 55.88671875 C8.18035156 55.26410156 7.59898437 54.64148438 7 54 C7.75 50.5625 7.75 50.5625 8.3984375 48.47265625 C10.16536072 41.20991339 10.11421555 33.31232192 6.29296875 26.7734375 C4.41941619 24.20367054 2.32452409 21.88548166 0.07421875 19.640625 C-1 18 -1 18 -0.671875 16.25 C-0.45015625 15.5075 -0.2284375 14.765 0 14 C0.06831987 11.5842094 0.08487642 9.16665287 0.0625 6.75 C0.05347656 5.48671875 0.04445313 4.2234375 0.03515625 2.921875 C0.02355469 1.95765625 0.01195312 0.9934375 0 0 Z " fill="#FADEB4" transform="translate(341,275)"/>
<path d="M0 0 C1.97362566 1.97362566 1.72870017 5.54739802 2.0625 8.25 C2.15192871 8.96349609 2.24135742 9.67699219 2.33349609 10.41210938 C3.09692587 16.95579318 3.16209215 23.41715177 3 30 C-5.29946848 32.22011483 -13.57092379 33.89694111 -22.0625 35.1875 C-23.15626953 35.36474609 -24.25003906 35.54199219 -25.37695312 35.72460938 C-32.30816874 36.79253611 -38.99000382 37.22890141 -46 37 C-47.8815863 27.67490566 -49.47703913 18.52149445 -50 9 C-48.88882812 8.96261719 -47.77765625 8.92523438 -46.6328125 8.88671875 C-31.86397097 8.60937404 -31.86397097 8.60937404 -19.3125 1.75 C-13.87814481 -2.79734267 -6.52613597 -1.11100675 0 0 Z " fill="#FBE1B6" transform="translate(326,418)"/>
<path d="M0 0 C1.43850655 1.10285502 2.87577412 2.20732625 4.3125 3.3125 C9.18717251 6.68045555 15.23800086 7.86516196 20.875 9.4375 C20.23378726 18.49884845 19.14019458 27.44602005 17.875 36.4375 C10.92927027 36.68688125 4.65478512 36.02646388 -2.125 34.5625 C-9.96485897 32.9565843 -17.73492816 31.77402513 -25.703125 31.03369141 C-31.03477643 30.52772357 -31.03477643 30.52772357 -32.125 29.4375 C-32.90639694 20.40600515 -31.37869756 11.35890141 -30.125 2.4375 C-29.56103516 2.45321045 -28.99707031 2.4689209 -28.41601562 2.48510742 C-25.81911565 2.54811574 -23.22237725 2.58669598 -20.625 2.625 C-19.738125 2.65013672 -18.85125 2.67527344 -17.9375 2.70117188 C-12.49801203 2.76116623 -4.50608852 -1.19278814 0 0 Z " fill="#FBDFB4" transform="translate(218.125,417.5625)"/>
<path d="M0 0 C3.75 1.25 3.75 1.25 6 3 C6.640625 5.109375 6.640625 5.109375 7 7 C5.92130607 7.96355244 4.83681257 8.92061417 3.75 9.875 C3.14671875 10.40867188 2.5434375 10.94234375 1.921875 11.4921875 C0.02581254 12.9797487 -1.81290005 14.00322436 -4 15 C-4.43821304 19.57018467 -4.43821304 19.57018467 -2.8828125 23.703125 C1.28251772 26.57219063 7.185287 25.54416904 12 25 C15.81893187 23.56261605 17.73100316 21.40349526 20 18 C21.32 18 22.64 18 24 18 C24.68491582 23.25102128 22.30549656 26.91908964 19.875 31.375 C19.30652344 32.46941406 19.30652344 32.46941406 18.7265625 33.5859375 C14.32714018 41.79819251 9.06252731 48.8357485 0 52 C-7.62896349 53.35900564 -13.43453488 52.20473526 -19.81640625 47.82421875 C-26.53321606 42.21285885 -29.65544987 34.91819288 -33 27 C-33.33386719 26.30132812 -33.66773438 25.60265625 -34.01171875 24.8828125 C-35.26108304 22.24840635 -36.06401713 20.49933358 -35.6875 17.5625 C-35.460625 17.046875 -35.23375 16.53125 -35 16 C-33.68 15.67 -32.36 15.34 -31 15 C-30.46375 15.928125 -29.9275 16.85625 -29.375 17.8125 C-26.61741469 21.51346976 -25.3937116 22.61251213 -21 24 C-16.65406118 24.23309565 -12.34724052 24.17414762 -8 24 C-7.49938931 20.54439564 -7.31636642 17.43827479 -8 14 C-9.90963907 11.80559019 -11.84351226 10.29318356 -14.25 8.66796875 C-16 7 -16 7 -16.4375 4.42578125 C-16.293125 3.62527344 -16.14875 2.82476562 -16 2 C-11.12238963 -1.25174025 -5.70619281 -0.45509513 0 0 Z " fill="#501B20" transform="translate(261,186)"/>
<path d="M0 0 C0.639375 0.70125 1.27875 1.4025 1.9375 2.125 C10.11234947 10.23096029 19.91762212 15.14985174 31.4375 15.5 C38.07836246 15.31815083 44.15439557 14.2915927 50 11 C50.66 10.01 51.32 9.02 52 8 C52.495 8.5775 52.99 9.155 53.5 9.75 C59.71353969 15.34218572 65.33791828 16.66177502 73.67578125 16.390625 C80.79902882 15.55358063 87.91317963 13.25091135 93 8 C94.31165257 5.88339573 94.31165257 5.88339573 95 4 C95.66 4 96.32 4 97 4 C97.09796875 4.62648438 97.1959375 5.25296875 97.296875 5.8984375 C97.44640625 6.71570313 97.5959375 7.53296875 97.75 8.375 C97.95882812 9.59316406 97.95882812 9.59316406 98.171875 10.8359375 C98.79946862 13.11817979 98.79946862 13.11817979 100.765625 14.12890625 C101.50296875 14.41636719 102.2403125 14.70382813 103 15 C103.804375 15.41378906 104.60875 15.82757813 105.4375 16.25390625 C106.7059375 16.90166016 106.7059375 16.90166016 108 17.5625 C109.2684375 18.21412109 109.2684375 18.21412109 110.5625 18.87890625 C118.64257131 22.5952211 128.7079739 22.13338131 137 19.3125 C144.40039647 16.20455082 148.46721512 12.19641365 152 5 C152.76040572 2.73014106 152.76040572 2.73014106 153 1 C154.98 1 156.96 1 159 1 C158.89300781 1.65226562 158.78601563 2.30453125 158.67578125 2.9765625 C158.10207289 7.1590815 157.78847377 10.28609899 159 14.375 C161.55129972 17.72358089 164.01510508 19.7340406 168 21 C173.91531689 21.67797328 178.51393211 21.29821763 184 19 C187.50508677 19.18447825 189.15793907 20.10423979 192.125 22.0625 C196.89335518 24.87593299 201.62542037 24.85404279 207 24 C212.91413715 21.97892232 217.59981155 19.40939071 221 14 C221.99 14.495 221.99 14.495 223 15 C218.90215197 21.88438468 213.7983929 27.01111217 206.04296875 29.53125 C201.25588321 30.62962527 197.32997642 30.52697179 192.6875 28.6875 C190.42681951 27.26800295 188.72637942 26.01410932 187 24 C182.92035719 25.30155006 182.92035719 25.30155006 179 27 C172.07087447 27.74621352 166.28931712 27.72199527 160.55078125 23.48046875 C156.19462532 19.32182115 155.2673545 13.65435083 154 8 C153.84144531 8.66386719 153.68289063 9.32773438 153.51953125 10.01171875 C151.55719261 17.43824897 149.19210346 20.89200715 142.6875 25.1875 C132.94839382 30.36074565 122.01229886 30.21317161 111.64453125 27.0390625 C104.13896478 24.09005116 99.37382746 20.33440752 96 13 C95.2575 13.763125 94.515 14.52625 93.75 15.3125 C86.88267761 22.02374688 80.50574301 23.44803218 71.0559082 23.51513672 C64.52967771 23.3481639 60.75798832 21.22203101 56 17 C55.01 16.34 54.02 15.68 53 15 C52.77183594 15.61488281 52.54367188 16.22976562 52.30859375 16.86328125 C50.60014026 19.6529053 49.10786632 20.09188363 46.0625 21.1875 C45.18722656 21.51105469 44.31195313 21.83460937 43.41015625 22.16796875 C34.5970197 25.21042918 25.48597152 25.08925439 17 21 C10.00796671 17.15438169 4.23628089 12.47256178 0.625 5.25 C0 3 0 3 0 0 Z " fill="#E8DCCA" transform="translate(146,105)"/>
<path d="M0 0 C3.68879299 1.80247839 7.22650083 3.8276212 10.78125 5.87890625 C15.07691796 8.04942862 18.28844513 7.98334058 23.0625 7.6875 C29.30903331 7.61055502 33.02316136 9.05417549 38.171875 12.4921875 C45.5791333 16.44136112 53.72197389 16.33835125 61.9375 16.3125 C63.46793945 16.33666992 63.46793945 16.33666992 65.02929688 16.36132812 C72.90377096 16.36635332 79.49830995 14.91273526 86.73046875 11.83984375 C89.63071657 10.7666023 92.22843702 10.68438512 95.3125 10.5625 C99.38906627 10.31809048 102.78530004 9.94409998 106.5625 8.375 C110.07668609 6.96932556 110.65207189 6.90111769 114 8 C109.54757098 13.72455159 103.80011435 15.05865954 97 17 C100.75306572 18.25102191 104.1101661 18.65975981 108 18 C109.36416564 17.17389172 110.69654224 16.29391275 112 15.375 C118.47083177 11.30077259 125.9154072 13.63523795 133 15 C133 15.99 133 16.98 133 18 C131.53240234 18.03867187 131.53240234 18.03867187 130.03515625 18.078125 C128.72417969 18.13484375 127.41320312 18.1915625 126.0625 18.25 C124.13083984 18.31960938 124.13083984 18.31960938 122.16015625 18.390625 C118.94515811 18.68341675 116.66772946 19.54847601 113.80078125 21.01171875 C108.05055867 23.76072596 102.39883829 23.5588735 96.125 23.5625 C88.4953121 23.5935872 81.90535322 24.0965542 74.59082031 26.31225586 C70.49441933 27.39966272 66.5324808 27.53104178 62.3125 27.5 C61.02230957 27.49794556 61.02230957 27.49794556 59.70605469 27.49584961 C53.25905651 27.34379777 47.82913652 26.05275683 41.8046875 23.85180664 C37.07280163 22.16876087 32.82261501 21.57826722 27.8125 21.4375 C19.00152012 21.11757237 10.47493855 19.69271168 3.1875 14.4375 C-1.77383222 10.95492339 -7.7289996 10.50098978 -13.5859375 9.578125 C-17 9 -17 9 -19 8 C-17 5 -17 5 -13.91796875 4.3125 C-3.72677155 3.45878715 -3.72677155 3.45878715 -0.0625 6.1875 C0.9584375 7.5796875 0.9584375 7.5796875 2 9 C6.91124301 12.87469926 10.84635238 13.43183492 17 13 C14.73876637 10.73876637 13.18448309 10.27445599 10.1875 9.25 C5.22742269 7.34779958 2.92885548 5.39328322 0 1 C0 0.67 0 0.34 0 0 Z " fill="#D1DBE0" transform="translate(197,248)"/>
<path d="M0 0 C4.86966284 0.6105924 9.10811131 2.10879349 13.625 3.9375 C19.35208834 6.16564623 24.74978282 7.7535473 30.8671875 8.5703125 C34.65231026 9.08946899 38.37780454 9.82299133 42.125 10.5625 C63.29499895 14.74021963 95.13342426 17.93328787 115 8 C116.54023996 7.93049459 118.08334988 7.91547643 119.625 7.9375 C120.85089844 7.95103516 120.85089844 7.95103516 122.1015625 7.96484375 C122.72804688 7.97644531 123.35453125 7.98804688 124 8 C124 8.99 124 9.98 124 11 C123.34 11 122.68 11 122 11 C121.731875 11.804375 121.46375 12.60875 121.1875 13.4375 C120.795625 14.283125 120.40375 15.12875 120 16 C117 17 117 17 114.125 17.4375 C111.07125442 17.86200466 111.07125442 17.86200466 108.69140625 19.01171875 C105.61360423 20.14188408 103.08314787 20.27142284 99.8125 20.375 C94.37011043 20.70783017 90.14602408 21.76760522 85.21875 24.0625 C79.19899522 26.60605836 72.79150325 26.21858505 66.375 26.25 C65.34503906 26.270625 64.31507813 26.29125 63.25390625 26.3125 C54.3797869 26.35714966 46.15672768 25.26630899 38.625 20.3125 C33.81851028 17.4062504 29.70196032 17.84991975 24.22265625 18.07421875 C17.03791475 17.90875198 11.30663464 14.6634062 6 10 C5.01 9.67 4.02 9.34 3 9 C2.05078125 6.93359375 2.05078125 6.93359375 1.3125 4.4375 C1.06113281 3.61121094 0.80976563 2.78492188 0.55078125 1.93359375 C0.36902344 1.29550781 0.18726563 0.65742188 0 0 Z " fill="#FCFAEB" transform="translate(193,239)"/>
<path d="M0 0 C8.48824975 4.1866609 14.38450595 13.0329472 19 21 C17.87464844 21.49306641 17.87464844 21.49306641 16.7265625 21.99609375 C2.91725152 28.41377102 -6.54157774 37.74745298 -12 52 C-15.75946912 48.47672789 -18.48597756 44.99884923 -21.1875 40.5625 C-21.86167969 39.47066406 -22.53585938 38.37882812 -23.23046875 37.25390625 C-26.9575466 30.40036133 -28.33513198 23.73769673 -27 16 C-25.17518135 12.69379768 -23.08947122 10.18115473 -20 8 C-17.26171875 7.29296875 -17.26171875 7.29296875 -15 7 C-14.50371094 7.6290625 -14.00742188 8.258125 -13.49609375 8.90625 C-6.76191714 18.59020894 -6.76191714 18.59020894 2 26 C0.02241852 23.18638228 -1.95733001 20.37429644 -3.9375 17.5625 C-4.78344727 16.35883789 -4.78344727 16.35883789 -5.64648438 15.13085938 C-6.18466797 14.36708984 -6.72285156 13.60332031 -7.27734375 12.81640625 C-8.02359009 11.75595093 -8.02359009 11.75595093 -8.78491211 10.67407227 C-9.89467045 9.05303063 -9.89467045 9.05303063 -11 8 C-11.28417861 5.30030316 -11.32477191 3.58864909 -10 1.1875 C-6.70976983 -0.76607416 -3.63408023 -0.77640134 0 0 Z " fill="#524848" transform="translate(115,211)"/>
<path d="M0 0 C0.33 0 0.66 0 1 0 C2.22256492 7.69560957 3.18419136 15.33384047 3.4375 23.125 C3.49744141 24.92324219 3.49744141 24.92324219 3.55859375 26.7578125 C2.83120085 30.9797433 1.34938778 32.40923424 -2 35 C-4.23828125 35.70703125 -4.23828125 35.70703125 -6.3125 35.8125 C-8.1378125 35.9053125 -8.1378125 35.9053125 -10 36 C-10.04898438 34.90300781 -10.09796875 33.80601562 -10.1484375 32.67578125 C-10.22350591 31.22133075 -10.29905197 29.76690484 -10.375 28.3125 C-10.4059375 27.59126953 -10.436875 26.87003906 -10.46875 26.12695312 C-10.69335587 22.02789606 -11.17740909 18.75631541 -13 15 C-13.99 15 -14.98 15 -16 15 C-15.67 16.0725 -15.34 17.145 -15 18.25 C-13.62610613 23.73576197 -13.43393778 29.381 -14 35 C-16 38 -16 38 -17.84423828 38.38818359 C-18.94614502 38.39325928 -18.94614502 38.39325928 -20.0703125 38.3984375 C-20.885 38.40230469 -21.6996875 38.40617187 -22.5390625 38.41015625 C-23.39242188 38.39855469 -24.24578125 38.38695312 -25.125 38.375 C-26.37023437 38.39240234 -26.37023437 38.39240234 -27.640625 38.41015625 C-33.77016346 38.38133397 -39.77298249 37.72140847 -44.65014648 33.60839844 C-46.83204652 31.008587 -47.38691027 27.85227999 -48.1875 24.625 C-48.36474609 23.965 -48.54199219 23.305 -48.72460938 22.625 C-49.65666564 19.01193247 -50.20886724 15.73080099 -50 12 C-49.67 12.99 -49.34 13.98 -49 15 C-32.61577624 13.09310719 -16.26485052 10.74403281 0 8 C0 5.36 0 2.72 0 0 Z " fill="#4A4242" transform="translate(329,440)"/>
<path d="M0 0 C0.99 0 1.98 0 3 0 C3.515625 1.175625 4.03125 2.35125 4.5625 3.5625 C7.75674018 9.95098036 12.64349282 14.72543569 19 18 C17.68499901 22.03450564 16.26036661 23.80595976 12.9375 26.375 C8.89924069 30.15767328 8.21661759 33.64169713 8 39 C7.94234754 41.34085538 7.95120212 43.65770158 8 46 C7.505 44.02 7.505 44.02 7 42 C6.51789063 42.433125 6.03578125 42.86625 5.5390625 43.3125 C4.90742188 43.869375 4.27578125 44.42625 3.625 45 C2.99851563 45.556875 2.37203125 46.11375 1.7265625 46.6875 C0 48 0 48 -2 48 C-2 48.66 -2 49.32 -2 50 C-10.30712867 53.88844321 -17.96562207 55.20178789 -27.0625 55.375 C-27.81829346 55.40102295 -28.57408691 55.4270459 -29.3527832 55.45385742 C-35.63158217 55.47366005 -40.74988868 53.78356635 -45.56640625 49.65844727 C-48.92107324 46.05946781 -49.90841511 42.85399905 -50 38 C-49.34 37.01 -48.68 36.02 -48 35 C-45.11767578 34.70703125 -45.11767578 34.70703125 -41.4453125 34.8125 C-40.78852509 34.82385986 -40.13173767 34.83521973 -39.45504761 34.84692383 C-36.64932895 34.89569946 -33.84493176 34.97875611 -31.04003906 35.06152344 C-19.47163607 35.3735911 -9.31225126 34.15176476 1.4375 29.5 C2.38496094 29.0978125 3.33242187 28.695625 4.30859375 28.28125 C7.05513398 27.02989349 7.05513398 27.02989349 9.72265625 25.34375 C12 24 12 24 14 24 C12.96644877 20.89934632 11.82003579 19.79240316 9.5390625 17.578125 C4.34924722 12.25658852 0.16267045 7.64551123 0 0 Z " fill="#ED8F73" transform="translate(140,112)"/>
<path d="M0 0 C0.33 0 0.66 0 1 0 C1.33 1.65 1.66 3.3 2 5 C2.68400879 5.07516846 3.36801758 5.15033691 4.07275391 5.2277832 C27.31676268 7.81327367 27.31676268 7.81327367 38.1640625 10.37109375 C42.09822611 11.24354601 45.9883768 11.65417041 50 12 C50.30127097 18.32669045 50.32444987 24.39725582 47 30 C40.60875327 33.71854355 34.5714858 34.18146268 27.375 34.1875 C26.59898437 34.19974609 25.82296875 34.21199219 25.0234375 34.22460938 C23.01423638 34.22984167 21.00547086 34.12248735 19 34 C17 32 17 32 16.734375 29.96875 C16.77362779 23.76680887 17.56275953 18.03127699 19 12 C18.01 12.33 17.02 12.66 16 13 C14.05494784 17.40613857 13.64525238 21.60054135 13.375 26.375 C13.30023438 27.62023437 13.22546875 28.86546875 13.1484375 30.1484375 C13.09945312 31.08945312 13.05046875 32.03046875 13 33 C11.3934324 32.74379316 9.7897517 32.46944129 8.1875 32.1875 C7.29417969 32.03667969 6.40085938 31.88585937 5.48046875 31.73046875 C2.76353184 30.93036292 1.70779042 30.22497616 0 28 C-2.79243032 19.62270904 -1.13909148 8.64489067 0 0 Z " fill="#4A4141" transform="translate(185,442)"/>
<path d="M0 0 C4.24357289 1.92889677 7.14202524 4.47639783 9.3046875 8.68359375 C11.29342269 15.30898683 11.22119889 23.29709588 8.3125 29.625 C6.38261835 32.81646506 4.14556466 34.95538297 1 37 C0.38125 37.4125 -0.2375 37.825 -0.875 38.25 C-4.09945356 39.38804243 -6.60407592 39.35130249 -10 39 C-16.12441489 35.7576627 -19.77010045 31.51816791 -22 25 C-22.91442241 17.88664427 -22.28583897 11.85476217 -18 6 C-13.04674271 -0.28579118 -7.77598539 -1.35081317 0 0 Z " fill="#252229" transform="translate(209,155)"/>
<path d="M0 0 C0.54140625 0.75925781 1.0828125 1.51851562 1.640625 2.30078125 C4.19158343 5.21917906 6.27985478 6.51086248 9.75 8.1875 C10.73484375 8.67605469 11.7196875 9.16460937 12.734375 9.66796875 C22.55335797 13.67308022 31.91650342 13.13973832 42.31494141 12.88354492 C44.44172253 12.83504609 46.56817697 12.80534435 48.6953125 12.77734375 C49.95359863 12.74890381 51.21188477 12.72046387 52.50830078 12.69116211 C56.35666454 13.03154668 58.72953587 13.97809699 62 16 C63.60127074 19.20254147 63.40701607 21.45314564 63 25 C59.97536777 30.28230414 55.85597641 33.33005271 50 35 C46.71806353 35.4312136 43.49444724 35.47580802 40.1875 35.4375 C39.3011084 35.43210205 38.4147168 35.4267041 37.50146484 35.42114258 C30.91983465 35.26795468 25.81048309 34.17259506 20 31 C18.865625 30.67 17.73125 30.34 16.5625 30 C12.78451877 27.05133173 12.77333706 23.58131229 11.8359375 19.015625 C10.27934781 13.40026408 6.69289692 10.25127164 2.125 6.875 C0 5 0 5 -0.3125 2.25 C-0.209375 1.5075 -0.10625 0.765 0 0 Z " fill="#EF9175" transform="translate(360,138)"/>
<path d="M0 0 C4.57748914 2.11268729 7.58623827 5.13640415 10.078125 9.46484375 C12.32023068 15.63063438 12.19309826 22.63677814 10.0078125 28.796875 C7.33042393 33.88557625 4.5756087 37.14146377 -1 39 C-5.18278876 39.72600673 -8.58541728 39.85404229 -12.296875 37.61328125 C-17.31121155 33.39501638 -19.70719982 30.10163906 -20.3359375 23.44140625 C-20.34882813 22.16136719 -20.36171875 20.88132813 -20.375 19.5625 C-20.40335937 18.28503906 -20.43171875 17.00757813 -20.4609375 15.69140625 C-19.6741208 9.39020472 -15.78861297 5.05187323 -10.9921875 1.140625 C-7.37549504 -0.93010872 -4.00496134 -0.83467202 0 0 Z " fill="#252129" transform="translate(316,160)"/>
<path d="M0 0 C1.02609375 0.66773438 2.0521875 1.33546875 3.109375 2.0234375 C7.32185652 4.45120191 11.02505124 4.65130682 15.8125 4.5625 C16.60350098 4.55806885 17.39450195 4.5536377 18.20947266 4.54907227 C23.95401118 4.37408478 28.19563042 3.20934117 33.0546875 -0.00390625 C35 -1 35 -1 36.9921875 -0.83203125 C39.3400289 0.14090692 41.19052832 1.38595753 43.25 2.875 C52.73086637 9.3775021 62.66368717 10.88545458 74 10 C82.20727679 8.37709216 88.78191094 5.63573027 95 0 C98.42642275 1.61907888 101.29602064 3.61193531 104.31640625 5.87890625 C108.74779991 8.82974147 113.89270482 8.35684158 119 8 C120.52890759 7.59161066 122.05066049 7.15513401 123.5625 6.6875 C126.29223463 5.98963741 127.46944131 5.74439495 130.03515625 6.98046875 C130.72480469 7.44066406 131.41445313 7.90085938 132.125 8.375 C138.20788594 12.37604262 145.01095015 11.41437054 152 11 C152 12.32 152 13.64 152 15 C142.78334649 15.40266933 136.16721358 15.68858557 128 11 C124.63477388 11.1904845 122.18419449 11.93860184 119 13 C111.21736165 13.99960493 105.5728223 12.17121415 99 8 C98.01 7.01 98.01 7.01 97 6 C93.16174012 6.45995676 90.50597685 8.51481417 87.390625 10.6484375 C80.76119263 14.39644992 74.82904264 15.52915557 67.25 15.4375 C66.37255127 15.42992676 65.49510254 15.42235352 64.59106445 15.41455078 C55.70593721 15.19023263 47.80629698 13.84300831 41.0625 7.6875 C40.57910156 7.15511719 40.09570312 6.62273437 39.59765625 6.07421875 C37.99108593 4.75162054 37.99108593 4.75162054 35.6328125 5.203125 C32.94791822 6.01576362 30.40557293 6.99386286 27.8125 8.0625 C19.06161973 11.28094456 11.4972045 10.7596758 3 7 C2.071875 6.4225 1.14375 5.845 0.1875 5.25 C-1.84238024 3.79102103 -1.84238024 3.79102103 -3.76171875 4.26171875 C-6.58698176 5.19361178 -9.26719989 6.38699407 -12 7.5625 C-21.45956682 11.22768491 -31.31406199 11.12574095 -41 8 C-41.66 7.34 -42.32 6.68 -43 6 C-42.67 5.34 -42.34 4.68 -42 4 C-40.783125 4.165 -39.56625 4.33 -38.3125 4.5 C-27.1581578 5.69448074 -17.74966199 5.63443338 -7.75 0.25 C-4.44540558 -1.25208837 -3.37835286 -1.23598276 0 0 Z " fill="#E1C39D" transform="translate(204,129)"/>
<path d="M0 0 C3.33776251 2.70439192 4.67761025 6.31377283 6.25 10.1875 C6.53101563 10.82236328 6.81203125 11.45722656 7.1015625 12.11132812 C9.16578307 17.16458096 9.1566391 20.65689155 8 26 C5.9375 29 5.9375 29 4 31 C0.34870709 29.53145801 -1.28955143 27.6053903 -3.5625 24.4375 C-6.06734287 20.80102586 -6.06734287 20.80102586 -10 19 C-9.41089844 19.88042969 -8.82179688 20.76085937 -8.21484375 21.66796875 C-7.45495136 22.84064218 -6.69587949 24.0138476 -5.9375 25.1875 C-5.35258789 26.0547168 -5.35258789 26.0547168 -4.75585938 26.93945312 C-2.98352106 29.71559368 -1.97481972 31.48128633 -2.13671875 34.81640625 C-3.23238314 37.58779264 -4.45414577 38.50243869 -7 40 C-11.87496646 41.62498882 -15.79152875 41.92646395 -20.5234375 39.94140625 C-26.58258732 36.41486637 -26.58258732 36.41486637 -27.6015625 32.9609375 C-27.625 30.875 -27.625 30.875 -27 27 C-26.93425781 26.31550781 -26.86851562 25.63101562 -26.80078125 24.92578125 C-25.56106242 21.94440864 -23.4728557 21.54708401 -20.5625 20.3125 C-11.031512 15.80260461 -3.9555819 9.88895476 0 0 Z " fill="#49403F" transform="translate(387,338)"/>
<path d="M0 0 C1.52954664 4.24159993 2.48902385 8.28807207 3.125 12.75 C3.29257812 13.87921875 3.46015625 15.0084375 3.6328125 16.171875 C4.07307144 20.76180863 4 25.38900026 4 30 C-4.91 30 -13.82 30 -23 30 C-23 23.28141032 -22.84800917 17.77500748 -21.5 11.375 C-21.35691406 10.65699219 -21.21382812 9.93898438 -21.06640625 9.19921875 C-20.71944694 7.46442222 -20.36099775 5.73192967 -20 4 C-17.60612843 3.32550034 -15.21030779 2.66023359 -12.8125 2 C-11.80219727 1.71382813 -11.80219727 1.71382813 -10.77148438 1.421875 C-7.09444844 0.4174164 -3.8149818 -0.23704741 0 0 Z " fill="#F9F9F9" transform="translate(267,424)"/>
<path d="M0 0 C0.33 0 0.66 0 1 0 C1.76764062 7.47738824 1.0143018 12.54626148 -3.21875 18.8359375 C-6.82876055 23.22178365 -11.44981406 26.58018499 -17 28 C-20.34081968 28.14951199 -23.65863766 28.11678548 -27 28 C-27.495 26.02 -27.495 26.02 -28 24 C-28.66 24 -29.32 24 -30 24 C-30.0928125 25.546875 -30.0928125 25.546875 -30.1875 27.125 C-31.49704705 33.3705321 -34.83982955 36.49812375 -40 39.875 C-45.73622465 42.8393577 -51.69653292 43.09993385 -58 42 C-60.48731587 40.54864869 -61.36052491 39.42885199 -63 37 C-62.01 36.505 -62.01 36.505 -61 36 C-61 35.01 -61 34.02 -61 33 C-60.28457031 32.98582031 -59.56914062 32.97164062 -58.83203125 32.95703125 C-50.04017385 32.53620496 -40.86917022 31.01571787 -33.8828125 25.25390625 C-31.21946133 22.29108736 -29.79110725 19.92973927 -29 16 C-27.85724609 16.06960937 -27.85724609 16.06960937 -26.69140625 16.140625 C-18.48200992 16.42759516 -12.144845 15.80919842 -5.92578125 10.09375 C-2.95949716 6.86874336 -0.78429481 4.39205096 0 0 Z " fill="#D1DAE0" transform="translate(378,214)"/>
<path d="M0 0 C3.28549059 1.9849839 5.06966639 3.49232618 7 6.8125 C7.5625 9.75 7.5625 9.75 7 12.8125 C4.43607969 16.51594044 2.25063083 19.25250417 -2 20.8125 C-4.67512852 21.05672617 -7.20152389 21.18259454 -9.875 21.1875 C-10.56980469 21.21199219 -11.26460938 21.23648438 -11.98046875 21.26171875 C-17.15320068 21.29094322 -20.04289403 20.08449509 -24 16.8125 C-26.33909307 13.3038604 -26.41291057 11.94160567 -26 7.8125 C-24.39289096 3.8419953 -22.0393237 1.53248117 -18.22265625 -0.4609375 C-12.48000046 -2.33815011 -5.65892967 -2.12209862 0 0 Z " fill="#FCB291" transform="translate(336,202.1875)"/>
<path d="M0 0 C3.25367645 1.91901981 4.7605489 3.78716149 6.76171875 7.0390625 C7.38671875 10.6015625 7.38671875 10.6015625 6.76171875 14.0390625 C4.58897655 16.66922411 2.81498087 18.51243144 -0.23828125 20.0390625 C-9.10651671 20.84899383 -16.42354234 21.29010977 -23.734375 15.546875 C-25.98358132 13.29182658 -26.24428045 12.00006768 -26.73828125 8.7890625 C-26.11291416 4.09880934 -24.64970383 3.01573345 -21.0625 0.203125 C-14.9693595 -3.6850032 -6.39869951 -2.77752879 0 0 Z " fill="#FBB494" transform="translate(195.23828125,195.9609375)"/>
<path d="M0 0 C0.99 0 1.98 0 3 0 C3.515625 1.175625 4.03125 2.35125 4.5625 3.5625 C7.75674018 9.95098036 12.64349282 14.72543569 19 18 C17.68499901 22.03450564 16.26036661 23.80595976 12.9375 26.375 C8.89924069 30.15767328 8.21661759 33.64169713 8 39 C7.94234754 41.34085538 7.95120212 43.65770158 8 46 C7.505 44.02 7.505 44.02 7 42 C6.01 42.495 6.01 42.495 5 43 C-10.30364017 43.70606924 -24.5631999 42.44685132 -39 37 C-39 36.67 -39 36.34 -39 36 C-38.39639648 35.98541748 -37.79279297 35.97083496 -37.17089844 35.95581055 C-20.45452326 35.5049209 -4.95190828 34.27060131 9.72265625 25.34375 C12 24 12 24 14 24 C12.96644877 20.89934632 11.82003579 19.79240316 9.5390625 17.578125 C4.34924722 12.25658852 0.16267045 7.64551123 0 0 Z " fill="#D96B4B" transform="translate(140,112)"/>
<path d="M0 0 C6.56526623 6.2197259 6.56526623 6.2197259 7.3359375 11.1484375 C7.46545529 18.53095156 4.74002655 22.23389571 -0.1875 27.5625 C-6.03149939 33.24276664 -12.61465579 36.70764372 -20.75 37.25 C-27.88420909 37.11763991 -33.35659922 34.38531756 -38.58984375 29.62890625 C-40.59629238 27.31120798 -41.36447943 24.96576268 -42 22 C-41.113125 22.61875 -40.22625 23.2375 -39.3125 23.875 C-32.85175855 28.01962659 -27.57438318 28.80304324 -20 28 C-13.5745622 26.4441021 -8.01636712 24.47686426 -4 19 C-0.22396825 12.69827815 0.54621811 7.26773545 0 0 Z " fill="#D8DFE0" transform="translate(287,320)"/>
<path d="M0 0 C0.33 0 0.66 0 1 0 C1.09796875 0.58007812 1.1959375 1.16015625 1.296875 1.7578125 C2.29242203 6.95868752 3.30101028 11.02358605 7 15 C10.89737122 17.02663303 14.9295977 18.60101622 19.25 19.43359375 C19.8275 19.62050781 20.405 19.80742187 21 20 C21.72045764 21.9812585 22.38001259 23.98504093 23 26 C27.0639566 31.92467477 32.37615135 34.53494228 39 37 C41.98839153 37.43588406 44.80308264 37.62779928 47.8203125 37.6015625 C48.89925781 37.79878906 48.89925781 37.79878906 50 38 C51.3046875 40.0234375 51.3046875 40.0234375 52 42 C46.73409672 45.15445414 40.92513628 44.78141132 35 44 C29.04019337 41.6552866 24.88004216 38.81459616 22 33 C21.8125 29.6875 21.8125 29.6875 22 27 C21.01 27.66 20.02 28.32 19 29 C15.83941387 29.58801602 13.82620127 29.46980072 11.0078125 27.8671875 C5.73880059 24.06952231 0.16828989 19.69658944 -1 13 C-1.09124674 11.12675812 -1.13005514 9.25045609 -1.125 7.375 C-1.12757813 6.41335937 -1.13015625 5.45171875 -1.1328125 4.4609375 C-1 2 -1 2 0 0 Z " fill="#D4DCDF" transform="translate(143,202)"/>
<path d="M0 0 C1.43850655 1.10285502 2.87577412 2.20732625 4.3125 3.3125 C9.18717251 6.68045555 15.23800086 7.86516196 20.875 9.4375 C20.23378726 18.49884845 19.14019458 27.44602005 17.875 36.4375 C14.575 36.4375 11.275 36.4375 7.875 36.4375 C8.865 36.1075 9.855 35.7775 10.875 35.4375 C11.535 27.8475 12.195 20.2575 12.875 12.4375 C10.895 12.1075 8.915 11.7775 6.875 11.4375 C4.890625 10.2109375 4.890625 10.2109375 3.125 8.8125 C-0.92831021 6.16342647 -3.31137648 6.26022941 -7.984375 7.0390625 C-12.24870412 7.58005948 -16.45669604 7.53226473 -20.75 7.5 C-21.97855713 7.49359497 -21.97855713 7.49359497 -23.23193359 7.48706055 C-25.19632024 7.47479612 -27.16066947 7.45675814 -29.125 7.4375 C-29.455 5.7875 -29.785 4.1375 -30.125 2.4375 C-29.56103516 2.45321045 -28.99707031 2.4689209 -28.41601562 2.48510742 C-25.81911565 2.54811574 -23.22237725 2.58669598 -20.625 2.625 C-19.738125 2.65013672 -18.85125 2.67527344 -17.9375 2.70117188 C-12.49801203 2.76116623 -4.50608852 -1.19278814 0 0 Z " fill="#E2B988" transform="translate(218.125,417.5625)"/>
<path d="M0 0 C0.54140625 0.75925781 1.0828125 1.51851562 1.640625 2.30078125 C4.19158343 5.21917906 6.27985478 6.51086248 9.75 8.1875 C10.73484375 8.67605469 11.7196875 9.16460937 12.734375 9.66796875 C21.54885436 13.26334849 30.11069047 13.41331054 39.5 13.625 C40.90887638 13.66325297 42.3177312 13.70230875 43.7265625 13.7421875 C47.15091327 13.83600533 50.57526508 13.92170216 54 14 C54 14.33 54 14.66 54 15 C53.0925 15.2475 52.185 15.495 51.25 15.75 C47.79746551 16.73242851 44.40176362 17.8546826 41 19 C39.96101563 19.34546875 38.92203125 19.6909375 37.8515625 20.046875 C35.68883374 20.76975968 33.53077337 21.50662987 31.375 22.25 C26.87064142 23.25096857 22.59069528 23.13841292 18 23 C16.68 23 15.36 23 14 23 C13.67 23 13.34 23 13 23 C12.89945312 22.45472656 12.79890625 21.90945312 12.6953125 21.34765625 C10.9894736 14.51261684 7.58494432 11.39180248 2.08203125 7.140625 C0 5 0 5 -0.30078125 2.234375 C-0.20152344 1.49703125 -0.10226562 0.7596875 0 0 Z " fill="#D45F41" transform="translate(360,138)"/>
<path d="M0 0 C0.99 0 1.98 0 3 0 C3 0.66 3 1.32 3 2 C3.58394531 2.28069336 4.16789062 2.56138672 4.76953125 2.85058594 C6.84973813 3.92256645 8.74531872 5.08871207 10.6875 6.390625 C25.52563976 16.23437985 40.43627752 24.13598105 58 28 C56.02 30.97 56.02 30.97 54 34 C33.72927489 31.92095127 13.83253187 14.73442881 0 1 C0 0.67 0 0.34 0 0 Z " fill="#DCB889" transform="translate(108,269)"/>
<path d="M0 0 C1.32 0.33 2.64 0.66 4 1 C4.03738281 1.99 4.07476562 2.98 4.11328125 4 C4.19658513 15.65797432 4.19658513 15.65797432 9.53125 25.515625 C10.99131477 26.71398005 12.49292937 27.86132441 14 29 C14 29.66 14 30.32 14 31 C12.948125 31.2475 11.89625 31.495 10.8125 31.75 C4.02289144 33.73087171 0.79505808 38.361628 -3 44 C-4.98 43.01 -6.96 42.02 -9 41 C-5.32167983 36.47384007 -1.58913637 32.60575001 3 29 C2.79503906 28.38511719 2.59007812 27.77023437 2.37890625 27.13671875 C-1.13861386 16.58415842 -1.13861386 16.58415842 -1.125 11.125 C-1.12757813 10.09632813 -1.13015625 9.06765625 -1.1328125 8.0078125 C-1.00995061 5.225352 -0.62944236 2.70760126 0 0 Z " fill="#4B3C35" transform="translate(169,263)"/>
<path d="M0 0 C1 1 1 1 1.09765625 2.84765625 C1.06510417 4.8984375 1.03255208 6.94921875 1 9 C0.505 7.02 0.505 7.02 0 5 C-9.70651216 4.083193 -15.70161997 5.32078736 -24.0546875 10.3125 C-31.92469591 14.82157644 -41.14030213 14.52109741 -50 15 C-50 13.02 -50 11.04 -50 9 C-48.88882812 8.96261719 -47.77765625 8.92523438 -46.6328125 8.88671875 C-31.86397097 8.60937404 -31.86397097 8.60937404 -19.3125 1.75 C-13.87814481 -2.79734267 -6.52613597 -1.11100675 0 0 Z " fill="#EAC191" transform="translate(326,418)"/>
<path d="M0 0 C-2.95646236 3.2935412 -5.63144979 4.95809575 -9.6875 6.6875 C-20.85535342 11.65518255 -31.59984317 17.42562437 -41.98828125 23.86328125 C-44.54064579 25.30549112 -47.22665176 26.07555059 -50 27 C-52.33531458 28.99935694 -52.33531458 28.99935694 -54 31 C-54.66 30.67 -55.32 30.34 -56 30 C-44.38172407 16.99859598 -29.65833835 9.96615426 -14 3 C-12.91332031 2.50886719 -11.82664063 2.01773438 -10.70703125 1.51171875 C-4.03780081 -1.35496671 -4.03780081 -1.35496671 0 0 Z " fill="#F6E8CD" transform="translate(136,115)"/>
<path d="M0 0 C0.73412109 -0.02449219 1.46824219 -0.04898438 2.22460938 -0.07421875 C7.82639534 -0.10404192 11.03743751 1.26676801 15.6875 4.375 C14.6875 7.375 14.6875 7.375 11.875 9.0625 C5.96208788 11.33763285 -0.94794427 11.7197918 -6.86328125 9.35546875 C-8.91594317 8.14866396 -10.66465217 7.095547 -12.3125 5.375 C-12.3125 4.385 -12.3125 3.395 -12.3125 2.375 C-8.4684472 -0.16065488 -4.44281643 0.00767989 0 0 Z " fill="#EB626B" transform="translate(252.3125,223.625)"/>
<path d="M0 0 C0.33 0 0.66 0 1 0 C1.144375 0.825 1.28875 1.65 1.4375 2.5 C3.09639379 6.21592209 4.34680479 7.30883619 7.4375 9.8125 C12.06633597 13.73435942 14.11518027 16.99305718 15 23 C15.19694207 26.35270435 15.18895991 29.64771124 15 33 C17.31 34.32 19.62 35.64 22 37 C15.78502335 40.2146431 15.78502335 40.2146431 12.95703125 39.44140625 C12.24933594 39.15136719 11.54164063 38.86132812 10.8125 38.5625 C9.73935547 38.13130859 9.73935547 38.13130859 8.64453125 37.69140625 C7.83048828 37.34916016 7.83048828 37.34916016 7 37 C7.875 29.375 7.875 29.375 9 26 C9.34856491 20.59724392 9.41707952 17.42954752 6 13 C5.525625 12.525625 5.05125 12.05125 4.5625 11.5625 C2.25300152 9.25300152 0.61797559 6.83145729 -1 4 C-0.75 1.625 -0.75 1.625 0 0 Z " fill="#803E2A" transform="translate(359,138)"/>
<path d="M0 0 C1.35262486 2.02893729 2.6855288 4.07113875 4 6.125 C5.69074133 9.04489239 5.69074133 9.04489239 8 10 C13.93381706 10.49687357 19.173092 10.92186275 24 7 C24.99 6.34 25.98 5.68 27 5 C26.82699867 9.41153398 26.4367928 11.49768828 23.5 14.875 C19.65045085 17.66292289 15.68558181 18.27754317 11 18 C5.75172294 16.45132808 3.0285052 14.54275781 0 10 C-1.49106457 7.01787087 -1.11941467 4.28390342 -1 1 C-0.67 0.67 -0.34 0.34 0 0 Z " fill="#D8DFDF" transform="translate(188,306)"/>
<path d="M0 0 C0.66 0 1.32 0 2 0 C2.4375 2.125 2.4375 2.125 2 5 C0.44140625 6.28125 0.44140625 6.28125 -1.5 7.625 C-3.95193552 9.54798975 -4.883992 10.41724106 -5.5 13.51171875 C-5.5 17.26055406 -5.23406848 20.82044229 -4.50390625 24.5 C-3.42977936 30.12728426 -3.42977936 30.12728426 -5.28125 32.9609375 C-7.12312268 34.74626145 -8.65546935 35.95645401 -11 37 C-14.4375 36.375 -14.4375 36.375 -17 35 C-15.37660195 33.29115995 -13.70680947 31.62553283 -12 30 C-11.34 30 -10.68 30 -10 30 C-10.0928125 28.72125 -10.185625 27.4425 -10.28125 26.125 C-10.96379317 12.65473165 -10.96379317 12.65473165 -8.2890625 8.0625 C-6.28836252 6.15569568 -4.25224873 4.59195091 -2 3 C-1.34 2.01 -0.68 1.02 0 0 Z " fill="#6E4C3B" transform="translate(158,132)"/>
<path d="M0 0 C1.32 0 2.64 0 4 0 C4.68491582 5.25102128 2.30549656 8.91908964 -0.125 13.375 C-0.50398438 14.10460937 -0.88296875 14.83421875 -1.2734375 15.5859375 C-4.75373642 22.08249548 -9.10123317 28.79972239 -15.7890625 32.35546875 C-20.69837696 33.78662932 -25.94394731 33.27371112 -31 33 C-30.67 32.34 -30.34 31.68 -30 31 C-27.05318983 30.13674733 -24.07927495 29.52570581 -21.078125 28.87890625 C-17.96185752 28.13495197 -17.96185752 28.13495197 -15.359375 26.40234375 C-13 25 -13 25 -9 25 C-8.82984375 24.30132812 -8.6596875 23.60265625 -8.484375 22.8828125 C-8.24203125 21.97273438 -7.9996875 21.06265625 -7.75 20.125 C-7.51796875 19.22007812 -7.2859375 18.31515625 -7.046875 17.3828125 C-5.77945966 14.49802384 -4.77820471 14.2546731 -2 13 C-1.18415432 9.94091587 -1.18415432 9.94091587 -1 7 C-2.98 7.99 -2.98 7.99 -5 9 C-5.33 8.01 -5.66 7.02 -6 6 C-4 4 -2 2 0 0 Z " fill="#3A201F" transform="translate(281,204)"/>
<path d="M0 0 C2.31 0.33 4.62 0.66 7 1 C6.46589137 8.35251669 5.86859084 15.67902003 5 23 C1.7 23 -1.6 23 -5 23 C-4.01 22.67 -3.02 22.34 -2 22 C-1.34 14.74 -0.68 7.48 0 0 Z " fill="#F0CA9C" transform="translate(231,431)"/>
<path d="M0 0 C0.33 0 0.66 0 1 0 C1.0515625 1.0415625 1.103125 2.083125 1.15625 3.15625 C1.88103494 13.28300709 4.27548522 20.85709196 9.22265625 29.70703125 C11.82490039 34.52833194 12.12182517 37.79208418 12.0625 43.25 C12.05347656 44.32765625 12.04445313 45.4053125 12.03515625 46.515625 C12.02355469 47.33546875 12.01195312 48.1553125 12 49 C11.34 49 10.68 49 10 49 C9.85304688 47.98421875 9.70609375 46.9684375 9.5546875 45.921875 C8.03496766 36.29424447 6.18511595 25.86784487 -1.234375 18.90234375 C-1.81703125 18.27457031 -2.3996875 17.64679688 -3 17 C-2.3125 13.3125 -2.3125 13.3125 -1.65234375 11.23828125 C-0.5817077 7.56478151 -0.33427133 3.80013726 0 0 Z " fill="#DCBA92" transform="translate(351,312)"/>
<path d="M0 0 C0.99 0 1.98 0 3 0 C3.515625 1.175625 4.03125 2.35125 4.5625 3.5625 C7.75674018 9.95098036 12.64349282 14.72543569 19 18 C18.1875 20.4375 18.1875 20.4375 17 23 C16.01 23.33 15.02 23.66 14 24 C13.67 23.01 13.34 22.02 13 21 C11.85284611 19.85284611 10.70310836 18.70813444 9.5390625 17.578125 C4.34924722 12.25658852 0.16267045 7.64551123 0 0 Z " fill="#DBA274" transform="translate(140,112)"/>
<path d="M0 0 C6.38255476 0.86216079 11.4344744 3.2810002 17.1875 6.0625 C18.21383545 6.55621094 19.2401709 7.04992187 20.29760742 7.55859375 C37.26070689 15.89106033 37.26070689 15.89106033 42 23 C37.39430587 20.88761397 33.26295732 17.97100591 29.04492188 15.18945312 C26.37916487 13.45116334 24.03361339 12.01120446 21 11 C20.01 11.33 19.02 11.66 18 12 C15.44140625 10.85546875 15.44140625 10.85546875 12.5625 9.1875 C11.61503906 8.64480469 10.66757812 8.10210937 9.69140625 7.54296875 C8.80324219 7.03378906 7.91507812 6.52460937 7 6 C6.26136719 5.64808594 5.52273438 5.29617187 4.76171875 4.93359375 C2.47669722 3.72268434 1.41781971 2.12672957 0 0 Z " fill="#F6E7CC" transform="translate(382,121)"/>
<path d="M0 0 C4.27070558 -0.08692074 8.54118458 -0.14036515 12.8125 -0.1875 C14.63491211 -0.22520508 14.63491211 -0.22520508 16.49414062 -0.26367188 C18.23920898 -0.27817383 18.23920898 -0.27817383 20.01953125 -0.29296875 C21.09307861 -0.3086792 22.16662598 -0.32438965 23.27270508 -0.34057617 C26 0 26 0 27.8737793 1.51831055 C28.24543213 2.00726807 28.61708496 2.49622559 29 3 C19.76544501 5.59866874 10.495025 5.18617696 1 5 C0.67 3.35 0.34 1.7 0 0 Z " fill="#E2BD8F" transform="translate(188,420)"/>
<path d="M0 0 C0.804375 0.86625 1.60875 1.7325 2.4375 2.625 C3.74925986 3.65313611 5.0744893 4.66584432 6.4375 5.625 C4.125 6.25 4.125 6.25 1.4375 6.625 C0.4475 5.965 -0.5425 5.305 -1.5625 4.625 C-4.25493887 4.0345281 -6.91019469 3.51616773 -9.625 3.0625 C-17.33057229 1.74096386 -17.33057229 1.74096386 -19.5625 0.625 C-17.5625 -2.375 -17.5625 -2.375 -15.35546875 -2.921875 C-4.09936586 -3.79941226 -4.09936586 -3.79941226 0 0 Z " fill="#C4CFD6" transform="translate(197.5625,255.375)"/>
<path d="M0 0 C1.89510699 -0.08160748 3.79124504 -0.13946459 5.6875 -0.1875 C6.74324219 -0.22230469 7.79898437 -0.25710937 8.88671875 -0.29296875 C12.35422768 0.03333385 14.18432448 1.00969875 17 3 C16.68522098 5.93793754 15.93578058 7.07200359 13.9375 9.3125 C9.71141823 11.7402491 7.68278323 11.22827101 3 10 C1.5 7.9375 1.5 7.9375 1 6 C3.31 6 5.62 6 8 6 C8 5.34 8 4.68 8 4 C8.66 4 9.32 4 10 4 C10 3.34 10 2.68 10 2 C6.7 1.67 3.4 1.34 0 1 C0 0.67 0 0.34 0 0 Z " fill="#552021" transform="translate(251,187)"/>
<path d="M0 0 C1.65 0 3.3 0 5 0 C4.01 0.33 3.02 0.66 2 1 C1.26480478 2.97583715 0.60927518 4.98177598 0 7 C-1.97289525 11.53765907 -4.55228148 15.21128799 -7.59765625 19.0703125 C-8.98194322 20.97515306 -10.00984691 22.86809143 -11 25 C-13 23.75 -13 23.75 -15 22 C-15 20.68 -15 19.36 -15 18 C-13.42578125 16.54296875 -13.42578125 16.54296875 -11.3125 15.1875 C-5.66816333 11.23146934 -2.19051488 6.57154463 0 0 Z " fill="#DDB289" transform="translate(376,119)"/>
<path d="M0 0 C4 2 4 2 5.8125 3.0625 C8.1109507 4.21003226 8.1109507 4.21003226 11.3125 4.0625 C16.23884781 5.31496131 17.4488632 7.73022871 20.2890625 11.765625 C22.54095761 14.70645606 24.79595822 16.20261071 28 18 C27.34 18.33 26.68 18.66 26 19 C16.51067195 15.00302235 5.7753831 8.66307466 0 0 Z " fill="#E2E2E4" transform="translate(145,232)"/>
<path d="M0 0 C0.66 0.33 1.32 0.66 2 1 C2 3.64 2 6.28 2 9 C2.928125 9.268125 3.85625 9.53625 4.8125 9.8125 C7.76240366 10.91148371 9.05615186 11.62418561 11 14 C6.54702432 15.76263621 4.10758535 16.36687763 -0.4375 14.625 C-2.2009375 13.820625 -2.2009375 13.820625 -4 13 C-3.55966813 7.80408388 -3.11696661 4.33664919 0 0 Z " fill="#6F4C3A" transform="translate(370,162)"/>
<path d="M0 0 C7.92 0.66 15.84 1.32 24 2 C24.33 2.99 24.66 3.98 25 5 C18.52865744 8.23567128 7.68340523 6.15679611 1 4 C0.34 3.34 -0.32 2.68 -1 2 C-0.67 1.34 -0.34 0.68 0 0 Z " fill="#E6CBA8" transform="translate(162,133)"/>
<path d="M0 0 C-3.68728032 4.00333292 -6.48752022 6.80995912 -12.09375 7.11328125 C-14.06283462 7.12368134 -16.03201829 7.06671124 -18 7 C-18 6.34 -18 5.68 -18 5 C-21.3 5 -24.6 5 -28 5 C-24.53420355 2.68946903 -22.90988429 2.72101545 -18.8125 2.5625 C-14.69486283 2.31947687 -11.25141541 1.96533076 -7.4375 0.375 C-3.92331391 -1.03067444 -3.34792811 -1.09888231 0 0 Z " fill="#E4E9E7" transform="translate(311,256)"/>
<path d="M0 0 C5.75 1.875 5.75 1.875 8 3 C10.55157655 3.0716735 13.07472971 3.09308442 15.625 3.0625 C16.33140625 3.05798828 17.0378125 3.05347656 17.765625 3.04882812 C19.51045275 3.03703875 21.255237 3.01910324 23 3 C23 4.32 23 5.64 23 7 C20.45767658 7.08152344 17.91800798 7.14073716 15.375 7.1875 C14.30572266 7.22520508 14.30572266 7.22520508 13.21484375 7.26367188 C8.40726659 7.32983119 5.16279423 6.67241111 1 4 C0.125 1.8125 0.125 1.8125 0 0 Z " fill="#E4C8A4" transform="translate(333,137)"/>
<path d="M0 0 C2.47960136 0.14024219 4.95852402 0.2869185 7.4375 0.4375 C8.14455078 0.47681641 8.85160156 0.51613281 9.58007812 0.55664062 C14.88671875 0.88671875 14.88671875 0.88671875 16 2 C16.14115161 4.67058851 16.04247107 7.32432238 16 10 C15.67 8.68 15.34 7.36 15 6 C14.01 6.061875 13.02 6.12375 12 6.1875 C7.53111789 6.21491645 4.08695392 4.7208227 0 3 C0 2.01 0 1.02 0 0 Z " fill="#DFB788" transform="translate(311,417)"/>
<path d="M0 0 C1.75 1 1.75 1 3.75 4 C3.5 6.125 3.5 6.125 2.75 8 C-0.20664519 9.4783226 -2.99229737 9.06032783 -6.25 9 C-6.91 7.68 -7.57 6.36 -8.25 5 C-2.88414634 0 -2.88414634 0 0 0 Z " fill="#776F71" transform="translate(99.25,218)"/>
<path d="M0 0 C0.66 0 1.32 0 2 0 C2.4375 2.125 2.4375 2.125 2 5 C0.546875 6.3515625 0.546875 6.3515625 -1.3125 7.75 C-7.12073345 12.30271632 -8.09601627 18.9489269 -9 26 C-9.33 26 -9.66 26 -10 26 C-11.22666169 12.91560866 -11.22666169 12.91560866 -8.2890625 8.328125 C-6.27929007 6.39816303 -4.19548896 4.7105416 -2 3 C-1.34 2.01 -0.68 1.02 0 0 Z " fill="#703B29" transform="translate(158,132)"/>
<path d="M0 0 C-3.02952741 3.40913084 -5.85651142 5.08736714 -10.0625 6.8125 C-11.10535156 7.25207031 -12.14820312 7.69164063 -13.22265625 8.14453125 C-16 9 -16 9 -19 8 C-19.66 7.34 -20.32 6.68 -21 6 C-18.25538312 4.79848104 -15.50547873 3.61361897 -12.75 2.4375 C-11.97269531 2.09525391 -11.19539063 1.75300781 -10.39453125 1.40039062 C-9.64042969 1.08134766 -8.88632813 0.76230469 -8.109375 0.43359375 C-7.07248535 -0.01415405 -7.07248535 -0.01415405 -6.01464844 -0.47094727 C-3.64929576 -1.09209599 -2.28986553 -0.77451334 0 0 Z " fill="#F2E3C9" transform="translate(136,115)"/>
<path d="M0 0 C1.155 0.598125 2.31 1.19625 3.5 1.8125 C7.57729478 3.85842827 11.70587761 5.46638486 16 7 C14 9 14 9 10.5 9.5 C4.80433165 9.41624017 0.54898496 6.132088 -4 3 C-2.68 2.01 -1.36 1.02 0 0 Z " fill="#4E4B56" transform="translate(200,253)"/>
<path d="M0 0 C4.55555556 0.55555556 4.55555556 0.55555556 6 2 C6.29386153 5.72224599 6.14809171 6.77786243 4 10 C-0.75 9.25 -0.75 9.25 -3 7 C-2.67028521 3.70285207 -2.3773161 2.3773161 0 0 Z " fill="#E5E4E7" transform="translate(310,165)"/>
<path d="M0 0 C3 0.125 3 0.125 4 1.125 C4.1875 4.0625 4.1875 4.0625 4 7.125 C2 9.125 2 9.125 -0.625 9.25 C-1.40875 9.20875 -2.1925 9.1675 -3 9.125 C-4.36623674 6.39252652 -4.128426 4.14301098 -4 1.125 C-3 0.125 -3 0.125 0 0 Z " fill="#F3F3F4" transform="translate(203,159.875)"/>
<path d="M0 0 C1.875 0.125 1.875 0.125 4 1 C5.03789581 2.64333504 6.03567924 4.31243867 7 6 C8.31963709 7.01800576 9.65009646 8.02248365 11 9 C11 9.66 11 10.32 11 11 C10.4225 10.649375 9.845 10.29875 9.25 9.9375 C6.6037015 8.83487562 5.62384878 8.95046049 3 10 C2.34 10.66 1.68 11.32 1 12 C-2.0656304 5.62348877 -2.0656304 5.62348877 -1.75 2.625 C-1 1 -1 1 0 0 Z " fill="#382321" transform="translate(227,201)"/>
<path d="M0 0 C0.66 0.33 1.32 0.66 2 1 C1.96519531 1.80824219 1.93039063 2.61648437 1.89453125 3.44921875 C1.86746094 4.51785156 1.84039062 5.58648437 1.8125 6.6875 C1.77769531 7.74324219 1.74289063 8.79898438 1.70703125 9.88671875 C2.03936945 13.41836599 2.88321504 15.18255429 5 18 C5.99 18.66 6.98 19.32 8 20 C8 20.66 8 21.32 8 22 C3.57258356 20.64717831 1.63690779 18.76701112 -1 15 C-2.16297973 12.67404054 -2.16600691 11.21276769 -2.1875 8.625 C-2.20167969 7.85414063 -2.21585938 7.08328125 -2.23046875 6.2890625 C-1.97801607 3.78165112 -1.25193467 2.16738098 0 0 Z " fill="#E0D8C7" transform="translate(141,173)"/>
<path d="M0 0 C0.33 0 0.66 0 1 0 C1.09796875 0.69867188 1.1959375 1.39734375 1.296875 2.1171875 C1.44640625 3.02726563 1.5959375 3.93734375 1.75 4.875 C1.88921875 5.77992188 2.0284375 6.68484375 2.171875 7.6171875 C2.77812506 10.10674587 2.77812506 10.10674587 4.8125 11.28125 C8.20241332 12.39507866 11.45177719 12.64517772 15 13 C15 13.33 15 13.66 15 14 C8.73 14 2.46 14 -4 14 C-4 12.68 -4 11.36 -4 10 C-3.34 10 -2.68 10 -2 10 C-1.34 6.7 -0.68 3.4 0 0 Z " fill="#331315" transform="translate(255,200)"/>
<path d="M0 0 C-0.66 1.65 -1.32 3.3 -2 5 C-3.0725 4.690625 -4.145 4.38125 -5.25 4.0625 C-10.75793783 2.66570282 -16.34559961 2.35811202 -22 2 C-22 1.67 -22 1.34 -22 1 C-18.37 1 -14.74 1 -11 1 C-11 0.34 -11 -0.32 -11 -1 C-6.74938644 -2.41687119 -4.28148375 -1.19320039 0 0 Z " fill="#383638" transform="translate(296,36)"/>
<path d="M0 0 C2.50109193 0.41684865 4.62611996 0.80059731 6.875 2 C9.24409729 3.11486931 11.15096669 3.39567353 13.75 3.625 C14.54921875 3.69976562 15.3484375 3.77453125 16.171875 3.8515625 C16.77515625 3.90054688 17.3784375 3.94953125 18 4 C18 4.33 18 4.66 18 5 C16.02 5.33 14.04 5.66 12 6 C15.3 6.33 18.6 6.66 22 7 C22 7.33 22 7.66 22 8 C13.88164233 8.75324968 8.64352184 7.98493403 1.765625 3.5078125 C1.18296875 3.01023438 0.6003125 2.51265625 0 2 C0 1.34 0 0.68 0 0 Z " fill="#482C28" transform="translate(239,230)"/>
<path d="M0 0 C4.62 0 9.24 0 14 0 C11 5 11 5 8.30078125 5.70703125 C7.31464844 5.74183594 6.32851563 5.77664063 5.3125 5.8125 C4.31863281 5.86019531 3.32476562 5.90789062 2.30078125 5.95703125 C1.54152344 5.97121094 0.78226562 5.98539062 0 6 C0 4.02 0 2.04 0 0 Z " fill="#E1B887" transform="translate(276,427)"/>
<path d="M0 0 C2.84611724 1.38772308 5.57725674 2.90646574 8.3125 4.5 C12.16808031 6.66397636 15.70480171 7.99474083 20 9 C17 11 17 11 13.1875 10.375 C8.03626091 8.88833725 4.19344086 6.75037992 1.125 2.25 C0.75375 1.5075 0.3825 0.765 0 0 Z " fill="#D6DDDC" transform="translate(197,248)"/>
<path d="M0 0 C1.98 0.495 1.98 0.495 4 1 C4 4.96 4 8.92 4 13 C3.67 13 3.34 13 3 13 C3 10.36 3 7.72 3 5 C2.34 5 1.68 5 1 5 C1 8.96 1 12.92 1 17 C0.34 17 -0.32 17 -1 17 C-1.02721176 15.10424749 -1.04649136 13.20838021 -1.0625 11.3125 C-1.07410156 10.25675781 -1.08570313 9.20101563 -1.09765625 8.11328125 C-1.00865425 5.27589738 -0.64939838 2.7561081 0 0 Z " fill="#594435" transform="translate(169,263)"/>
<path d="M0 0 C0 1 0 2 0 3 C1.32 3.33 2.64 3.66 4 4 C0.21916742 6.52055505 -3.61718019 6.46702178 -8 6 C-10.5 5 -10.5 5 -12 4 C-12 3.67 -12 3.34 -12 3 C-10.37604003 2.49663233 -8.75079459 1.99741024 -7.125 1.5 C-6.22007812 1.2215625 -5.31515625 0.943125 -4.3828125 0.65625 C-2 0 -2 0 0 0 Z " fill="#535056" transform="translate(305,261)"/>
<path d="M0 0 C1.45823212 -0.0270043 2.91660675 -0.04639787 4.375 -0.0625 C5.18710938 -0.07410156 5.99921875 -0.08570313 6.8359375 -0.09765625 C9 0 9 0 11 1 C11 1.66 11 2.32 11 3 C10.34 3 9.68 3 9 3 C9 3.66 9 4.32 9 5 C5.625 5.125 5.625 5.125 2 5 C1.34 4.34 0.68 3.68 0 3 C0 2.01 0 1.02 0 0 Z " fill="#9B5C65" transform="translate(250,188)"/>
<path d="M0 0 C1.09570312 0.00902344 2.19140625 0.01804688 3.3203125 0.02734375 C4.16335937 0.03894531 5.00640625 0.05054688 5.875 0.0625 C5.875 1.3825 5.875 2.7025 5.875 4.0625 C1.255 4.0625 -3.365 4.0625 -8.125 4.0625 C-8.125 3.0725 -8.125 2.0825 -8.125 1.0625 C-5.36047967 -0.31976016 -3.0788637 -0.03275387 0 0 Z " fill="#D5B892" transform="translate(219.125,133.9375)"/>
<path d="M0 0 C4.455 0.99 4.455 0.99 9 2 C9 3.98 9 5.96 9 8 C2.35384615 5.66153846 2.35384615 5.66153846 0.5625 2.3125 C0.376875 1.549375 0.19125 0.78625 0 0 Z " fill="#D3A877" transform="translate(230,425)"/>
<path d="M0 0 C1.93022565 2.26591707 2.94166279 3.64997672 3.4375 6.625 C3.7159375 7.800625 3.7159375 7.800625 4 9 C5.3153341 9.70151152 6.65117592 10.36525925 8 11 C9.75 13.625 9.75 13.625 11 16 C10.01 16.33 9.02 16.66 8 17 C7.03576974 15.60823368 6.07888398 14.2113777 5.125 12.8125 C4.59132812 12.03519531 4.05765625 11.25789062 3.5078125 10.45703125 C1.34924098 6.93956626 0 4.15636365 0 0 Z " fill="#381B19" transform="translate(230,214)"/>
<path d="M0 0 C-0.969375 0.680625 -1.93875 1.36125 -2.9375 2.0625 C-7.36142478 6.34069549 -6.86527858 12.17146426 -6.9921875 17.9296875 C-6.99476563 18.94289062 -6.99734375 19.95609375 -7 21 C-7.33 21 -7.66 21 -8 21 C-8.14515677 17.89632503 -8.23400853 14.79351973 -8.3125 11.6875 C-8.35439453 10.80642578 -8.39628906 9.92535156 -8.43945312 9.01757812 C-8.48571933 6.58397597 -8.47112023 4.3888837 -8 2 C-4.93771135 -0.84685126 -4.00577983 -1.33525994 0 0 Z " fill="#BF5B41" transform="translate(155,137)"/>
<path d="M0 0 C2.97 0.33 5.94 0.66 9 1 C9.33 2.32 9.66 3.64 10 5 C3.6 5.36923077 3.6 5.36923077 0.5625 3.5 C0.046875 3.005 -0.46875 2.51 -1 2 C-0.67 1.34 -0.34 0.68 0 0 Z " fill="#DED0B9" transform="translate(162,133)"/>
<path d="M0 0 C0.66 0 1.32 0 2 0 C2.24887295 2.10192697 2.4734719 4.20673964 2.6875 6.3125 C2.81511719 7.48425781 2.94273437 8.65601563 3.07421875 9.86328125 C3 13 3 13 1.51953125 14.91796875 C1.01808594 15.27503906 0.51664063 15.63210938 0 16 C-1.16306443 12.45049966 -0.92365049 9.44176052 -0.5625 5.75 C-0.46066406 4.67234375 -0.35882813 3.5946875 -0.25390625 2.484375 C-0.17011719 1.66453125 -0.08632812 0.8446875 0 0 Z " fill="#3F322C" transform="translate(170,268)"/>
<path d="M0 0 C-0.7109375 1.953125 -0.7109375 1.953125 -2 4 C-4.1640625 4.609375 -4.1640625 4.609375 -6.625 4.75 C-7.44226563 4.80671875 -8.25953125 4.8634375 -9.1015625 4.921875 C-9.72804688 4.94765625 -10.35453125 4.9734375 -11 5 C-11 3.68 -11 2.36 -11 1 C-6.87831311 -0.62950412 -4.29299643 -1.26264601 0 0 Z " fill="#D8BB97" transform="translate(334,136)"/>
<path d="M0 0 C4.8 3.32307692 4.8 3.32307692 5.8125 6.75 C5.874375 7.4925 5.93625 8.235 6 9 C4.35 9 2.7 9 1 9 C-1.125 2.25 -1.125 2.25 0 0 Z " fill="#E9E0D0" transform="translate(186,68)"/>
<path d="M0 0 C3 1 3 1 4 3 C4.07065617 5.04055005 4.08421976 7.08334257 4.0625 9.125 C4.05347656 10.22070312 4.04445313 11.31640625 4.03515625 12.4453125 C4.02355469 13.28835938 4.01195312 14.13140625 4 15 C3.34 15 2.68 15 2 15 C1.34 10.05 0.68 5.1 0 0 Z " fill="#D7B68D" transform="translate(359,346)"/>
<path d="M0 0 C0.66 0 1.32 0 2 0 C2.33 2.64 2.66 5.28 3 8 C2.01 8.33 1.02 8.66 0 9 C0 8.01 0 7.02 0 6 C-1.65 6 -3.3 6 -5 6 C-3.38405168 3.95880212 -1.7143618 1.95927063 0 0 Z " fill="#F7C294" transform="translate(145,154)"/>
<path d="M0 0 C0.99 0.33 1.98 0.66 3 1 C3 5.62 3 10.24 3 15 C2.01 15.495 2.01 15.495 1 16 C-0.12862175 10.63904667 -0.09688221 5.44693314 0 0 Z " fill="#A67B5B" transform="translate(339,274)"/>
<path d="M0 0 C1.89510699 -0.08160748 3.79124504 -0.13946459 5.6875 -0.1875 C6.74324219 -0.22230469 7.79898437 -0.25710937 8.88671875 -0.29296875 C12.35422768 0.03333385 14.18432448 1.00969875 17 3 C16.625 4.9375 16.625 4.9375 16 7 C15.01 7.495 15.01 7.495 14 8 C13.67 6.35 13.34 4.7 13 3 C8.71 2.34 4.42 1.68 0 1 C0 0.67 0 0.34 0 0 Z " fill="#4D231E" transform="translate(251,187)"/>
<path d="M0 0 C-1.12451727 2.9719385 -2.22293791 5.33440687 -4 8 C-4.99 7.34 -5.98 6.68 -7 6 C-6.75 3.625 -6.75 3.625 -6 1 C-2.69333333 -1.34666667 -2.69333333 -1.34666667 0 0 Z " fill="#433A36" transform="translate(177,257)"/>
<path d="M0 0 C0.66 0 1.32 0 2 0 C2 1.65 2 3.3 2 5 C-1.21451269 6.60725635 -4.43612536 6.05748185 -8 6 C-8.33 5.34 -8.66 4.68 -9 4 C-6.69 4 -4.38 4 -2 4 C-2 3.34 -2 2.68 -2 2 C-1.34 2 -0.68 2 0 2 C0 1.34 0 0.68 0 0 Z " fill="#6D2329" transform="translate(261,189)"/>
<path d="M0 0 C3.25696479 0.41755959 4.63443291 0.63443291 7 3 C3.8125 4.1875 3.8125 4.1875 0 5 C-2.9375 3.625 -2.9375 3.625 -5 2 C-4.360625 1.855625 -3.72125 1.71125 -3.0625 1.5625 C-1.02454854 1.18992819 -1.02454854 1.18992819 0 0 Z " fill="#594538" transform="translate(374,173)"/>
<path d="M0 0 C0.515625 0.7425 1.03125 1.485 1.5625 2.25 C4.47534392 5.53628545 7.12433906 6.98763759 11 9 C10.01 9.495 10.01 9.495 9 10 C8.67 10.66 8.34 11.32 8 12 C6.65213008 10.95600254 5.32207271 9.88897934 4 8.8125 C3.2575 8.22082031 2.515 7.62914062 1.75 7.01953125 C0 5 0 5 -0.25 2.26171875 C-0.1675 1.51535156 -0.085 0.76898438 0 0 Z " fill="#BC553D" transform="translate(360,138)"/>
<path d="M0 0 C1.32 0.66 2.64 1.32 4 2 C3.1875 4.4375 3.1875 4.4375 2 7 C1.01 7.33 0.02 7.66 -1 8 C-1.66 6.35 -2.32 4.7 -3 3 C-2.01 2.01 -1.02 1.02 0 0 Z " fill="#D89767" transform="translate(155,128)"/>
<path d="M0 0 C0.33 2.97 0.66 5.94 1 9 C0.01 8.67 -0.98 8.34 -2 8 C-2.33 7.34 -2.66 6.68 -3 6 C-3.99 6.66 -4.98 7.32 -6 8 C-6.33 7.01 -6.66 6.02 -7 5 C-1.125 0 -1.125 0 0 0 Z " fill="#5D4838" transform="translate(340,285)"/>
<path d="M0 0 C3.63 0 7.26 0 11 0 C11 0.99 11 1.98 11 3 C7.04 3 3.08 3 -1 3 C-0.67 2.01 -0.34 1.02 0 0 Z " fill="#DAE5E9" transform="translate(319,263)"/>
<path d="M0 0 C-0.33 0.99 -0.66 1.98 -1 3 C-3.97 3 -6.94 3 -10 3 C-9.67 2.01 -9.34 1.02 -9 0 C-3.375 -1.125 -3.375 -1.125 0 0 Z " fill="#CFCFC8" transform="translate(357,141)"/>
<path d="M0 0 C3.82097239 0.53069061 6.06171403 1.49701566 9 4 C8.34 4 7.68 4 7 4 C7 4.66 7 5.32 7 6 C1.25 4.25 1.25 4.25 -1 2 C-0.67 1.34 -0.34 0.68 0 0 Z " fill="#E3C7A1" transform="translate(204,131)"/>
<path d="M0 0 C1.65 0 3.3 0 5 0 C4.01 0.33 3.02 0.66 2 1 C1.26480478 2.97583715 0.60927518 4.98177598 0 7 C-0.97004121 9.01470098 -1.96244882 11.01922047 -3 13 C-4.23593891 9.29218328 -3.5678132 8.32489747 -2.0625 4.8125 C-1.68222656 3.91144531 -1.30195313 3.01039062 -0.91015625 2.08203125 C-0.60980469 1.39496094 -0.30945313 0.70789063 0 0 Z " fill="#DDBE99" transform="translate(376,119)"/>
<path d="M0 0 C1.18851563 0.00902344 2.37703125 0.01804688 3.6015625 0.02734375 C4.51679688 0.03894531 5.43203125 0.05054688 6.375 0.0625 C6.375 0.3925 6.375 0.7225 6.375 1.0625 C3.075 1.3925 -0.225 1.7225 -3.625 2.0625 C-3.295 3.7125 -2.965 5.3625 -2.625 7.0625 C-3.615 7.0625 -4.605 7.0625 -5.625 7.0625 C-5.74875 6.258125 -5.8725 5.45375 -6 4.625 C-6.309375 3.3565625 -6.309375 3.3565625 -6.625 2.0625 C-7.285 1.7325 -7.945 1.4025 -8.625 1.0625 C-5.74084117 -0.37957941 -3.20778472 -0.03144887 0 0 Z " fill="#73463C" transform="translate(254.625,185.9375)"/>
<path d="M0 0 C0.33 0 0.66 0 1 0 C1.12117188 0.69867188 1.24234375 1.39734375 1.3671875 2.1171875 C1.53476562 3.02726563 1.70234375 3.93734375 1.875 4.875 C2.03742188 5.77992188 2.19984375 6.68484375 2.3671875 7.6171875 C2.83044703 10.16505988 2.83044703 10.16505988 5 12 C2.03 11.67 -0.94 11.34 -4 11 C-3.34 10.67 -2.68 10.34 -2 10 C-1.31068656 7.65092125 -1.31068656 7.65092125 -0.875 4.9375 C-0.70742187 4.01839844 -0.53984375 3.09929687 -0.3671875 2.15234375 C-0.24601563 1.44207031 -0.12484375 0.73179687 0 0 Z " fill="#301D19" transform="translate(255,200)"/>
<path d="M0 0 C0.66 0 1.32 0 2 0 C2.3125 2.3125 2.3125 2.3125 2 5 C-0.5 6.8125 -0.5 6.8125 -3 8 C-3.66 7.34 -4.32 6.68 -5 6 C-3.38405168 3.95880212 -1.7143618 1.95927063 0 0 Z " fill="#7F3825" transform="translate(158,132)"/>
<path d="M0 0 C1.79158489 -0.02696365 3.58328473 -0.04637917 5.375 -0.0625 C6.37273437 -0.07410156 7.37046875 -0.08570313 8.3984375 -0.09765625 C11 0 11 0 13 1 C13 1.66 13 2.32 13 3 C11.02 3.33 9.04 3.66 7 4 C7 3.34 7 2.68 7 2 C4.69 1.67 2.38 1.34 0 1 C0 0.67 0 0.34 0 0 Z " fill="#F2C792" transform="translate(280,428)"/>
<path d="M0 0 C1.32 0.33 2.64 0.66 4 1 C4 4.96 4 8.92 4 13 C3.67 13 3.34 13 3 13 C3 10.36 3 7.72 3 5 C2.01 4.67 1.02 4.34 0 4 C0 2.68 0 1.36 0 0 Z " fill="#5E5149" transform="translate(169,263)"/>
<path d="M0 0 C0 0.99 0 1.98 0 3 C-3.63 3 -7.26 3 -11 3 C-10.67 2.34 -10.34 1.68 -10 1 C-6.56187949 0.23597322 -3.53471921 0 0 0 Z " fill="#231318" transform="translate(261,234)"/>
<path d="M0 0 C0.99 0 1.98 0 3 0 C3.73080266 1.97746603 4.39421747 3.98072489 5 6 C4.67 6.66 4.34 7.32 4 8 C3.01 7.67 2.02 7.34 1 7 C0.67 4.69 0.34 2.38 0 0 Z " fill="#D29B70" transform="translate(140,112)"/>
<path d="M0 0 C5.15171623 -0.09038099 9.91913204 0.15318867 15 1 C15 1.33 15 1.66 15 2 C11.7 2.66 8.4 3.32 5 4 C5 3.34 5 2.68 5 2 C3.35 1.67 1.7 1.34 0 1 C0 0.67 0 0.34 0 0 Z " fill="#7A6C5F" transform="translate(197,449)"/>
<path d="M0 0 C-0.8125 1.9375 -0.8125 1.9375 -2 4 C-2.99 4.33 -3.98 4.66 -5 5 C-5 8.3 -5 11.6 -5 15 C-5.33 15 -5.66 15 -6 15 C-6.6269791 4.89867004 -6.6269791 4.89867004 -4.125 1.3125 C-2 0 -2 0 0 0 Z " fill="#E8DFD1" transform="translate(158,139)"/>
<path d="M0 0 C1.98 0 3.96 0 6 0 C5.67 1.65 5.34 3.3 5 5 C3.35 4.67 1.7 4.34 0 4 C0 2.68 0 1.36 0 0 Z " fill="#EEE2D3" transform="translate(299,106)"/>
<path d="M0 0 C2.0625 0.4375 2.0625 0.4375 4 1 C2.35 2.65 0.7 4.3 -1 6 C-1.66 5.67 -2.32 5.34 -3 5 C-1.125 1.125 -1.125 1.125 0 0 Z " fill="#E2E2DE" transform="translate(307,255)"/>
<path d="M0 0 C6.75 0.75 6.75 0.75 9 3 C6.03 3 3.06 3 0 3 C0 2.01 0 1.02 0 0 Z " fill="#403B43" transform="translate(207,258)"/>
<path d="M0 0 C0.33 0 0.66 0 1 0 C1.33 2.31 1.66 4.62 2 7 C1.01 7.66 0.02 8.32 -1 9 C-2.0326802 6.21176345 -2.04509293 5.1322726 -1.0625 2.25 C-0.711875 1.5075 -0.36125 0.765 0 0 Z " fill="#5F493D" transform="translate(300,112)"/>
<path d="M0 0 C0.33 0.66 0.66 1.32 1 2 C-1 5 -1 5 -2.9453125 5.51171875 C-3.66460937 5.56972656 -4.38390625 5.62773437 -5.125 5.6875 C-7.043125 5.8421875 -7.043125 5.8421875 -9 6 C-6 4 -3 2 0 0 Z " fill="#D3B087" transform="translate(309,419)"/>
<path d="M0 0 C3.625 -0.1875 3.625 -0.1875 7 0 C6.01 1.485 6.01 1.485 5 3 C1.375 3.1875 1.375 3.1875 -2 3 C-1.34 2.01 -0.68 1.02 0 0 Z " fill="#D0DCE1" transform="translate(180,254)"/>
<path d="M0 0 C2.475 0.99 2.475 0.99 5 2 C4.01 2.99 3.02 3.98 2 5 C-0.475 4.01 -0.475 4.01 -3 3 C-2.01 2.01 -1.02 1.02 0 0 Z " fill="#5C3E32" transform="translate(144,164)"/>
<path d="M0 0 C2.64 0 5.28 0 8 0 C8 0.66 8 1.32 8 2 C5.5 3.625 5.5 3.625 3 5 C3 4.01 3 3.02 3 2 C2.01 1.34 1.02 0.68 0 0 Z " fill="#4F4D50" transform="translate(176,391)"/>
<path d="M0 0 C2.49361571 1.20381448 4.68143083 2.45428722 7 4 C7 4.66 7 5.32 7 6 C5.1875 5.8125 5.1875 5.8125 3 5 C1.25 2.4375 1.25 2.4375 0 0 Z " fill="#E6E7E2" transform="translate(197,248)"/>
<path d="M0 0 C-1.32 1.32 -2.64 2.64 -4 4 C-4.33 3.01 -4.66 2.02 -5 1 C-5.66 0.67 -6.32 0.34 -7 0 C-3.86650268 -1.04449911 -3.01031744 -0.93423645 0 0 Z " fill="#EEDEC1" transform="translate(136,115)"/>
<path d="M0 0 C0.99 0.33 1.98 0.66 3 1 C-0.465 3.97 -0.465 3.97 -4 7 C-2.92598892 4.08482708 -2.22189824 2.22189824 0 0 Z " fill="#F1F0E9" transform="translate(165,349)"/>
<path d="M0 0 C-0.33 0.99 -0.66 1.98 -1 3 C-4.96 3 -8.92 3 -13 3 C-13 2.67 -13 2.34 -13 2 C-12.06027344 1.90912109 -12.06027344 1.90912109 -11.1015625 1.81640625 C-9.87566406 1.69072266 -9.87566406 1.69072266 -8.625 1.5625 C-7.81289062 1.48128906 -7.00078125 1.40007812 -6.1640625 1.31640625 C-3.85304959 0.97851447 -2.33455672 0 0 0 Z " fill="#6A6A70" transform="translate(195,244)"/>
<path d="M0 0 C1.98 0 3.96 0 6 0 C5.67 0.99 5.34 1.98 5 3 C2.9375 3.6875 2.9375 3.6875 1 4 C0.67 2.68 0.34 1.36 0 0 Z " fill="#351D1F" transform="translate(260,233)"/>
<path d="M0 0 C-1.0975223 2.99324263 -1.67682892 3.84610901 -4.625 5.25 C-5.40875 5.4975 -6.1925 5.745 -7 6 C-7 5.34 -7 4.68 -7 4 C-2.52941176 0 -2.52941176 0 0 0 Z " fill="#DDDBD4" transform="translate(382,199)"/>
<path d="M0 0 C1.98 0.66 3.96 1.32 6 2 C5.01 2.33 4.02 2.66 3 3 C1.79117904 5.00016466 1.79117904 5.00016466 1 7 C0 2.25 0 2.25 0 0 Z " fill="#734C3A" transform="translate(159,130)"/>
</svg>
